<svg version="1.1" id="Layer_1" xmlns="http://www.w3.org/2000/svg" xmlns:xlink="http://www.w3.org/1999/xlink" x="0px" y="0px"
	 width="100%" viewBox="0 0 121 110" enable-background="new 0 0 121 110" xml:space="preserve">
<path fill="#16A906" opacity="1.000000" stroke="none" 
	d="
M23.000000,111.000000 
	C19.637899,111.000000 16.275799,111.000000 12.404663,110.585396 
	C11.714259,100.395569 11.469599,90.620979 11.370323,80.844925 
	C11.281099,72.058716 11.351520,63.270889 11.351520,55.772209 
	C16.565113,53.265507 20.844753,51.207851 25.314365,49.058857 
	C31.916843,56.479321 42.630379,56.160118 49.535770,48.355843 
	C57.574490,56.530582 64.800072,56.560799 73.018791,49.553085 
	C78.021431,51.262913 82.201118,53.836342 86.355499,53.796101 
	C90.691055,53.754101 95.002220,51.194435 99.284843,49.748680 
	C102.831795,51.380371 107.046143,53.319084 111.932304,55.566849 
	C111.932304,72.959122 111.932304,91.398750 111.468575,109.863869 
	C93.690353,109.870247 76.375862,109.851135 59.024788,109.375122 
	C58.988201,93.711044 58.988201,78.503860 58.988201,63.316360 
	C46.974258,63.316360 35.745918,63.316360 24.061472,63.316360 
	C24.061472,77.330292 24.105341,91.079117 24.014128,104.827049 
	C24.000462,106.886856 23.353827,108.942451 23.000000,111.000000 
M90.604652,73.145210 
	C90.286606,70.247169 89.968567,67.349121 89.650467,64.450645 
	C86.721809,64.450645 84.012604,64.450645 80.961090,64.450645 
	C80.961090,67.585243 80.961090,70.362068 80.961090,73.660660 
	C77.712898,73.660660 74.809761,73.660660 71.984299,73.660660 
	C71.984299,76.769035 71.984299,79.340149 71.984299,82.309265 
	C75.089493,82.309265 77.867508,82.309265 80.863281,82.309265 
	C81.067688,85.590775 81.247818,88.482391 81.425476,91.334457 
	C84.453156,91.334457 87.049156,91.334457 89.827919,91.334457 
	C89.993530,88.162079 90.144257,85.274879 90.320488,81.899017 
	C93.825050,81.899017 96.728020,81.899017 99.597427,81.899017 
	C99.597427,78.918106 99.597427,76.474548 99.597427,73.384331 
	C96.756943,73.384331 94.133583,73.384331 90.604652,73.145210 
z"/>
<path fill="#F9FDF9" opacity="1.000000" stroke="none" 
	d="
M111.932304,109.838387 
	C111.932304,91.398750 111.932304,72.959122 111.932304,55.566849 
	C107.046143,53.319084 102.831795,51.380371 99.284843,49.748680 
	C95.002220,51.194435 90.691055,53.754101 86.355499,53.796101 
	C82.201118,53.836342 78.021431,51.262913 73.018791,49.553085 
	C64.800072,56.560799 57.574490,56.530582 49.535770,48.355843 
	C42.630379,56.160118 31.916843,56.479321 25.314365,49.058857 
	C20.844753,51.207851 16.565113,53.265507 11.351520,55.772209 
	C11.351520,63.270889 11.281099,72.058716 11.370323,80.844925 
	C11.469599,90.620979 11.714259,100.395569 11.947814,110.585396 
	C8.344593,111.000000 4.689186,111.000000 1.016890,111.000000 
	C1.016890,74.457199 1.016890,37.914383 1.016890,1.000000 
	C8.016441,1.000000 15.039438,1.000000 22.484507,1.258769 
	C22.955086,1.685993 23.003593,1.854448 22.966583,2.454280 
	C22.881067,4.358694 22.881067,5.831732 22.881067,7.406186 
	C49.050365,7.406186 74.859833,7.406186 100.737953,7.406186 
	C100.737953,5.389688 100.737953,3.740989 100.821533,1.823554 
	C100.936745,1.369878 100.968376,1.184939 101.000000,1.000000 
	C107.976425,1.000000 114.952858,1.000000 121.964645,1.000000 
	C121.964645,37.666660 121.964645,74.333328 121.964645,111.000000 
	C118.952919,111.000000 115.963020,111.000000 112.473328,110.709381 
	C111.959778,110.225296 111.946037,110.031837 111.932304,109.838387 
M33.806267,26.307335 
	C31.815105,30.678957 29.389801,34.919880 28.017614,39.477844 
	C27.340826,41.725922 27.709465,45.746277 29.192701,46.871025 
	C31.929489,48.946350 35.878944,50.526463 39.245823,50.391010 
	C43.577667,50.216736 46.611588,46.920265 47.468880,42.317200 
	C47.953262,39.716408 48.355171,37.098526 48.726604,34.478760 
	C49.805946,26.866055 50.851173,19.248518 51.942253,11.399243 
	C47.668533,11.399243 44.061581,11.399243 40.495552,11.399243 
	C38.289070,16.252359 36.166683,20.920519 33.806267,26.307335 
M53.106426,46.317440 
	C56.190762,50.130997 60.012398,52.049809 64.891937,50.360077 
	C68.926468,48.962967 72.383598,46.182777 71.940453,41.752407 
	C70.925545,31.606106 69.131760,21.537714 67.651680,11.420137 
	C63.418167,11.420137 59.812016,11.420137 55.876705,11.420137 
	C54.436787,21.069256 52.923248,30.540318 51.693329,40.048069 
	C51.461060,41.843597 52.356853,43.785049 53.106426,46.317440 
M72.979591,21.498007 
	C73.978409,28.226120 74.984795,34.953121 75.973587,41.682709 
	C76.726311,46.805626 81.023209,50.740257 86.175201,50.996609 
	C93.339340,51.353085 97.996719,44.663502 95.073845,38.199829 
	C91.448059,30.181736 87.920929,22.115105 84.067856,14.207500 
	C83.406860,12.850934 81.438248,11.618196 79.885834,11.325857 
	C77.359848,10.850183 74.678879,11.197533 71.532852,11.197533 
	C72.050293,14.768893 72.473785,17.691788 72.979591,21.498007 
M24.787792,37.312588 
	C28.559654,28.746391 32.331516,20.180197 36.009312,11.827633 
	C28.121895,9.286526 23.543074,12.550540 19.570576,18.672995 
	C14.887950,25.889910 9.459962,32.648434 4.039911,39.350777 
	C1.414022,42.597912 2.230159,45.012066 4.631936,47.578850 
	C7.891317,51.062157 12.568560,51.704784 16.945807,49.748806 
	C22.151754,47.422523 22.392809,42.190216 24.787792,37.312588 
M100.777939,41.800705 
	C101.400917,46.511559 104.381989,49.156757 108.653679,50.494713 
	C113.217171,51.924065 116.764557,49.933453 119.687241,46.644657 
	C122.702332,43.251881 120.378304,40.649563 118.277313,37.921074 
	C112.902664,30.941191 107.660339,23.859543 102.346291,16.832817 
	C97.551666,10.492907 95.821655,9.921965 87.563377,12.037601 
	C91.875465,21.757980 96.166519,31.430923 100.777939,41.800705 
z"/>
<path fill="#E7F6E5" opacity="1.000000" stroke="none" 
	d="
M23.416668,111.000000 
	C23.353827,108.942451 24.000462,106.886856 24.014128,104.827049 
	C24.105341,91.079117 24.061472,77.330292 24.061472,63.316360 
	C35.745918,63.316360 46.974258,63.316360 58.988201,63.316360 
	C58.988201,78.503860 58.988201,93.711044 59.008308,109.667061 
	C59.018940,110.610596 59.009472,110.805298 59.000000,111.000000 
	C57.933331,111.000000 56.866661,111.000000 55.386574,110.711174 
	C54.962963,110.229858 54.952766,110.037369 54.985580,109.387741 
	C55.028599,95.019020 55.028599,81.107452 55.028599,67.207794 
	C45.717770,67.207794 36.986099,67.207794 28.058416,67.207794 
	C28.058416,81.611580 28.058416,95.726555 28.042889,110.131104 
	C28.018242,110.613777 28.009121,110.806885 28.000000,111.000000 
	C26.611111,111.000000 25.222221,111.000000 23.416668,111.000000 
z"/>
<path fill="#52BF46" opacity="1.000000" stroke="none" 
	d="
M100.531342,1.000000 
	C100.968376,1.184939 100.936745,1.369878 100.369698,1.809450 
	C74.240219,2.050356 48.646160,2.036630 23.052101,2.022904 
	C23.003593,1.854448 22.955086,1.685993 22.953289,1.258769 
	C48.687561,1.000000 74.375122,1.000000 100.531342,1.000000 
z"/>
<path fill="#ECF8EB" opacity="1.000000" stroke="none" 
	d="
M59.468658,111.000000 
	C59.009472,110.805298 59.018940,110.610596 59.044891,110.123962 
	C76.375862,109.851135 93.690353,109.870247 111.468575,109.863869 
	C111.946037,110.031837 111.959778,110.225296 111.986763,110.709381 
	C94.645775,111.000000 77.291542,111.000000 59.468658,111.000000 
z"/>
<path fill="#ECF8EB" opacity="1.000000" stroke="none" 
	d="
M54.942566,109.844879 
	C54.952766,110.037369 54.962963,110.229858 54.986580,110.711174 
	C46.312439,111.000000 37.624874,111.000000 28.468657,111.000000 
	C28.009121,110.806885 28.018242,110.613777 28.506859,110.162735 
	C37.638424,109.884827 46.290493,109.864853 54.942566,109.844879 
z"/>
<path fill="#F2FAF1" opacity="1.000000" stroke="none" 
	d="
M91.057434,73.264771 
	C94.133583,73.384331 96.756943,73.384331 99.597427,73.384331 
	C99.597427,76.474548 99.597427,78.918106 99.597427,81.899017 
	C96.728020,81.899017 93.825050,81.899017 90.320488,81.899017 
	C90.144257,85.274879 89.993530,88.162079 89.827919,91.334457 
	C87.049156,91.334457 84.453156,91.334457 81.425476,91.334457 
	C81.247818,88.482391 81.067688,85.590775 80.863281,82.309265 
	C77.867508,82.309265 75.089493,82.309265 71.984299,82.309265 
	C71.984299,79.340149 71.984299,76.769035 71.984299,73.660660 
	C74.809761,73.660660 77.712898,73.660660 80.961090,73.660660 
	C80.961090,70.362068 80.961090,67.585243 80.961090,64.450645 
	C84.012604,64.450645 86.721809,64.450645 89.650467,64.450645 
	C89.968567,67.349121 90.286606,70.247169 91.057434,73.264771 
z"/>
<path fill="#18A908" opacity="1.000000" stroke="none" 
	d="
M33.925278,25.948006 
	C36.166683,20.920519 38.289070,16.252359 40.495552,11.399243 
	C44.061581,11.399243 47.668533,11.399243 51.942253,11.399243 
	C50.851173,19.248518 49.805946,26.866055 48.726604,34.478760 
	C48.355171,37.098526 47.953262,39.716408 47.468880,42.317200 
	C46.611588,46.920265 43.577667,50.216736 39.245823,50.391010 
	C35.878944,50.526463 31.929489,48.946350 29.192701,46.871025 
	C27.709465,45.746277 27.340826,41.725922 28.017614,39.477844 
	C29.389801,34.919880 31.815105,30.678957 33.925278,25.948006 
z"/>
<path fill="#17A907" opacity="1.000000" stroke="none" 
	d="
M52.919281,45.988304 
	C52.356853,43.785049 51.461060,41.843597 51.693329,40.048069 
	C52.923248,30.540318 54.436787,21.069256 55.876705,11.420137 
	C59.812016,11.420137 63.418167,11.420137 67.651680,11.420137 
	C69.131760,21.537714 70.925545,31.606106 71.940453,41.752407 
	C72.383598,46.182777 68.926468,48.962967 64.891937,50.360077 
	C60.012398,52.049809 56.190762,50.130997 52.919281,45.988304 
z"/>
<path fill="#18A908" opacity="1.000000" stroke="none" 
	d="
M72.938431,21.056345 
	C72.473785,17.691788 72.050293,14.768893 71.532852,11.197533 
	C74.678879,11.197533 77.359848,10.850183 79.885834,11.325857 
	C81.438248,11.618196 83.406860,12.850934 84.067856,14.207500 
	C87.920929,22.115105 91.448059,30.181736 95.073845,38.199829 
	C97.996719,44.663502 93.339340,51.353085 86.175201,50.996609 
	C81.023209,50.740257 76.726311,46.805626 75.973587,41.682709 
	C74.984795,34.953121 73.978409,28.226120 72.938431,21.056345 
z"/>
<path fill="#19A908" opacity="1.000000" stroke="none" 
	d="
M24.571281,37.628925 
	C22.392809,42.190216 22.151754,47.422523 16.945807,49.748806 
	C12.568560,51.704784 7.891317,51.062157 4.631936,47.578850 
	C2.230159,45.012066 1.414022,42.597912 4.039911,39.350777 
	C9.459962,32.648434 14.887950,25.889910 19.570576,18.672995 
	C23.543074,12.550540 28.121895,9.286526 36.009312,11.827633 
	C32.331516,20.180197 28.559654,28.746391 24.571281,37.628925 
z"/>
<path fill="#19A908" opacity="1.000000" stroke="none" 
	d="
M100.617752,41.452286 
	C96.166519,31.430923 91.875465,21.757980 87.563377,12.037601 
	C95.821655,9.921965 97.551666,10.492907 102.346291,16.832817 
	C107.660339,23.859543 112.902664,30.941191 118.277313,37.921074 
	C120.378304,40.649563 122.702332,43.251881 119.687241,46.644657 
	C116.764557,49.933453 113.217171,51.924065 108.653679,50.494713 
	C104.381989,49.156757 101.400917,46.511559 100.617752,41.452286 
z"/>
<path fill="#13A702" opacity="1.000000" stroke="none" 
	d="
M22.966583,2.454280 
	C48.646160,2.036630 74.240219,2.050356 100.286118,2.078186 
	C100.737953,3.740989 100.737953,5.389688 100.737953,7.406186 
	C74.859833,7.406186 49.050365,7.406186 22.881067,7.406186 
	C22.881067,5.831732 22.881067,4.358694 22.966583,2.454280 
z"/>
<path fill="#14A803" opacity="1.000000" stroke="none" 
	d="
M54.985580,109.387741 
	C46.290493,109.864853 37.638424,109.884827 28.522385,109.873169 
	C28.058416,95.726555 28.058416,81.611580 28.058416,67.207794 
	C36.986099,67.207794 45.717770,67.207794 55.028599,67.207794 
	C55.028599,81.107452 55.028599,95.019020 54.985580,109.387741 
z"/>
</svg>