<svg xmlns="http://www.w3.org/2000/svg" xmlns:xlink="http://www.w3.org/1999/xlink" version="1.1" width="1000" height="1000" viewBox="0 0 1000 1000" xml:space="preserve">
<desc>Created with Fabric.js 3.5.0</desc>
<defs>
</defs>
<rect x="0" y="0" width="100%" height="100%" fill="#333333"/>
<g transform="matrix(8.3333 0 0 8.3333 499.982 499.982)" id="226790">
<g style="" vector-effect="non-scaling-stroke">
		<g transform="matrix(1 0 0 1 0 0)" id="ca7db4f1-e4a5-4d35-bfb8-45c959cbb90e">
<rect style="stroke: none; stroke-width: 1; stroke-dasharray: none; stroke-linecap: butt; stroke-dashoffset: 0; stroke-linejoin: miter; stroke-miterlimit: 4; is-custom-font: none; font-file-url: none; fill: rgb(255,255,255); fill-rule: nonzero; opacity: 1; visibility: hidden;" vector-effect="non-scaling-stroke" x="-540" y="-540" rx="0" ry="0" width="1080" height="1080"/>
</g>
		<g transform="matrix(1 0 0 1 0.1387 23.6779)">
<path style="stroke: none; stroke-width: 1; stroke-dasharray: none; stroke-linecap: butt; stroke-dashoffset: 0; stroke-linejoin: miter; stroke-miterlimit: 4; is-custom-font: none; font-file-url: none; fill: rgb(22,169,6); fill-rule: nonzero; opacity: 1;" vector-effect="non-scaling-stroke" transform=" translate(-61.6287, -79.6779)" d="M 23 111 C 19.637899 111 16.275799 111 12.404663 110.585396 C 11.714259 100.395569 11.469599 90.620979 11.370323 80.844925 C 11.281099 72.058716 11.35152 63.270889 11.35152 55.772209 C 16.565113 53.265507 20.844753 51.207851 25.314365 49.058857 C 31.916843 56.479321 42.630379 56.160118 49.53577 48.355843 C 57.57449 56.530582 64.800072 56.560799 73.018791 49.553085 C 78.021431 51.262913 82.201118 53.836342 86.355499 53.796101 C 90.691055 53.754101 95.00222 51.194435 99.284843 49.74868 C 102.831795 51.380371 107.046143 53.319084 111.932304 55.566849 C 111.932304 72.959122 111.932304 91.39875 111.468575 109.863869 C 93.690353 109.870247 76.375862 109.851135 59.024788 109.375122 C 58.988201 93.711044 58.988201 78.50386 58.988201 63.31636 C 46.974258 63.31636 35.745918 63.31636 24.061472 63.31636 C 24.061472 77.330292 24.105341 91.079117 24.014128 104.827049 C 24.000462 106.886856 23.353827 108.942451 23 111 M 90.604652 73.14521 C 90.286606 70.247169 89.968567 67.349121 89.650467 64.450645 C 86.721809 64.450645 84.012604 64.450645 80.96109 64.450645 C 80.96109 67.585243 80.96109 70.362068 80.96109 73.66066 C 77.712898 73.66066 74.809761 73.66066 71.984299 73.66066 C 71.984299 76.769035 71.984299 79.340149 71.984299 82.309265 C 75.089493 82.309265 77.867508 82.309265 80.863281 82.309265 C 81.067688 85.590775 81.247818 88.482391 81.425476 91.334457 C 84.453156 91.334457 87.049156 91.334457 89.827919 91.334457 C 89.99353 88.162079 90.144257 85.274879 90.320488 81.899017 C 93.82505 81.899017 96.72802 81.899017 99.597427 81.899017 C 99.597427 78.918106 99.597427 76.474548 99.597427 73.384331 C 96.756943 73.384331 94.133583 73.384331 90.604652 73.14521 z" stroke-linecap="round"/>
</g>
		<g transform="matrix(1 0 0 1 -20.2773 31.1582)">
<path style="stroke: none; stroke-width: 1; stroke-dasharray: none; stroke-linecap: butt; stroke-dashoffset: 0; stroke-linejoin: miter; stroke-miterlimit: 4; is-custom-font: none; font-file-url: none; fill: rgb(231,246,229); fill-rule: nonzero; opacity: 1;" vector-effect="non-scaling-stroke" transform=" translate(-41.2127, -87.1582)" d="M 23.416668 111 C 23.353827 108.942451 24.000462 106.886856 24.014128 104.827049 C 24.105341 91.079117 24.061472 77.330292 24.061472 63.31636 C 35.745918 63.31636 46.974258 63.31636 58.988201 63.31636 C 58.988201 78.50386 58.988201 93.711044 59.008308 109.667061 C 59.01894 110.610596 59.009472 110.805298 59 111 C 57.933331 111 56.866661 111 55.386574 110.711174 C 54.962963 110.229858 54.952766 110.037369 54.98558 109.387741 C 55.028599 95.01902 55.028599 81.107452 55.028599 67.207794 C 45.71777 67.207794 36.986099 67.207794 28.058416 67.207794 C 28.058416 81.61158 28.058416 95.726555 28.042889 110.131104 C 28.018242 110.613777 28.009121 110.806885 28 111 C 26.611111 111 25.222221 111 23.416668 111 z" stroke-linecap="round"/>
</g>
		<g transform="matrix(1 0 0 1 0.4019 -54.4854)">
<path style="stroke: none; stroke-width: 1; stroke-dasharray: none; stroke-linecap: butt; stroke-dashoffset: 0; stroke-linejoin: miter; stroke-miterlimit: 4; is-custom-font: none; font-file-url: none; fill: rgb(82,191,70); fill-rule: nonzero; opacity: 1;" vector-effect="non-scaling-stroke" transform=" translate(-61.8919, -1.5146)" d="M 100.531342 1 C 100.968376 1.184939 100.936745 1.369878 100.369698 1.80945 C 74.240219 2.050356 48.64616 2.03663 23.052101 2.022904 C 23.003593 1.854448 22.955086 1.685993 22.953289 1.258769 C 48.687561 1 74.375122 1 100.531342 1 z" stroke-linecap="round"/>
</g>
		<g transform="matrix(1 0 0 1 24.0208 54.432)">
<path style="stroke: none; stroke-width: 1; stroke-dasharray: none; stroke-linecap: butt; stroke-dashoffset: 0; stroke-linejoin: miter; stroke-miterlimit: 4; is-custom-font: none; font-file-url: none; fill: rgb(236,248,235); fill-rule: nonzero; opacity: 1;" vector-effect="non-scaling-stroke" transform=" translate(-85.5108, -110.4319)" d="M 59.468658 111 C 59.009472 110.805298 59.01894 110.610596 59.044891 110.123962 C 76.375862 109.851135 93.690353 109.870247 111.468575 109.863869 C 111.946037 110.031837 111.959778 110.225296 111.986763 110.709381 C 94.645775 111 77.291542 111 59.468658 111 z" stroke-linecap="round"/>
</g>
		<g transform="matrix(1 0 0 1 -19.9307 54.4225)">
<path style="stroke: none; stroke-width: 1; stroke-dasharray: none; stroke-linecap: butt; stroke-dashoffset: 0; stroke-linejoin: miter; stroke-miterlimit: 4; is-custom-font: none; font-file-url: none; fill: rgb(236,248,235); fill-rule: nonzero; opacity: 1;" vector-effect="non-scaling-stroke" transform=" translate(-41.5593, -110.4224)" d="M 54.942566 109.844879 C 54.952766 110.037369 54.962963 110.229858 54.98658 110.711174 C 46.312439 111 37.624874 111 28.468657 111 C 28.009121 110.806885 28.018242 110.613777 28.506859 110.162735 C 37.638424 109.884827 46.290493 109.864853 54.942566 109.844879 z" stroke-linecap="round"/>
</g>
		<g transform="matrix(1 0 0 1 24.3009 21.8925)">
<path style="stroke: none; stroke-width: 1; stroke-dasharray: none; stroke-linecap: butt; stroke-dashoffset: 0; stroke-linejoin: miter; stroke-miterlimit: 4; is-custom-font: none; font-file-url: none; fill: rgb(242,250,241); fill-rule: nonzero; opacity: 1;" vector-effect="non-scaling-stroke" transform=" translate(-85.7909, -77.8926)" d="M 91.057434 73.264771 C 94.133583 73.384331 96.756943 73.384331 99.597427 73.384331 C 99.597427 76.474548 99.597427 78.918106 99.597427 81.899017 C 96.72802 81.899017 93.82505 81.899017 90.320488 81.899017 C 90.144257 85.274879 89.99353 88.162079 89.827919 91.334457 C 87.049156 91.334457 84.453156 91.334457 81.425476 91.334457 C 81.247818 88.482391 81.067688 85.590775 80.863281 82.309265 C 77.867508 82.309265 75.089493 82.309265 71.984299 82.309265 C 71.984299 79.340149 71.984299 76.769035 71.984299 73.66066 C 74.809761 73.66066 77.712898 73.66066 80.96109 73.66066 C 80.96109 70.362068 80.96109 67.585243 80.96109 64.450645 C 84.012604 64.450645 86.721809 64.450645 89.650467 64.450645 C 89.968567 67.349121 90.286606 70.247169 91.057434 73.264771 z" stroke-linecap="round"/>
</g>
		<g transform="matrix(1 0 0 1 -21.6732 -25.1009)">
<path style="stroke: none; stroke-width: 1; stroke-dasharray: none; stroke-linecap: butt; stroke-dashoffset: 0; stroke-linejoin: miter; stroke-miterlimit: 4; is-custom-font: none; font-file-url: none; fill: rgb(24,169,8); fill-rule: nonzero; opacity: 1;" vector-effect="non-scaling-stroke" transform=" translate(-39.8168, -30.8992)" d="M 33.925278 25.948006 C 36.166683 20.920519 38.28907 16.252359 40.495552 11.399243 C 44.061581 11.399243 47.668533 11.399243 51.942253 11.399243 C 50.851173 19.248518 49.805946 26.866055 48.726604 34.47876 C 48.355171 37.098526 47.953262 39.716408 47.46888 42.3172 C 46.611588 46.920265 43.577667 50.216736 39.245823 50.39101 C 35.878944 50.526463 31.929489 48.94635 29.192701 46.871025 C 27.709465 45.746277 27.340826 41.725922 28.017614 39.477844 C 29.389801 34.91988 31.815105 30.678957 33.925278 25.948006 z" stroke-linecap="round"/>
</g>
		<g transform="matrix(1 0 0 1 0.3273 -24.8037)">
<path style="stroke: none; stroke-width: 1; stroke-dasharray: none; stroke-linecap: butt; stroke-dashoffset: 0; stroke-linejoin: miter; stroke-miterlimit: 4; is-custom-font: none; font-file-url: none; fill: rgb(23,169,7); fill-rule: nonzero; opacity: 1;" vector-effect="non-scaling-stroke" transform=" translate(-61.8173, -31.1964)" d="M 52.919281 45.988304 C 52.356853 43.785049 51.46106 41.843597 51.693329 40.048069 C 52.923248 30.540318 54.436787 21.069256 55.876705 11.420137 C 59.812016 11.420137 63.418167 11.420137 67.65168 11.420137 C 69.13176 21.537714 70.925545 31.606106 71.940453 41.752407 C 72.383598 46.182777 68.926468 48.962967 64.891937 50.360077 C 60.012398 52.049809 56.190762 50.130997 52.919281 45.988304 z" stroke-linecap="round"/>
</g>
		<g transform="matrix(1 0 0 1 22.2562 -24.9572)">
<path style="stroke: none; stroke-width: 1; stroke-dasharray: none; stroke-linecap: butt; stroke-dashoffset: 0; stroke-linejoin: miter; stroke-miterlimit: 4; is-custom-font: none; font-file-url: none; fill: rgb(24,169,8); fill-rule: nonzero; opacity: 1;" vector-effect="non-scaling-stroke" transform=" translate(-83.7462, -31.0427)" d="M 72.938431 21.056345 C 72.473785 17.691788 72.050293 14.768893 71.532852 11.197533 C 74.678879 11.197533 77.359848 10.850183 79.885834 11.325857 C 81.438248 11.618196 83.40686 12.850934 84.067856 14.2075 C 87.920929 22.115105 91.448059 30.181736 95.073845 38.199829 C 97.996719 44.663502 93.33934 51.353085 86.175201 50.996609 C 81.023209 50.740257 76.726311 46.805626 75.973587 41.682709 C 74.984795 34.953121 73.978409 28.22612 72.938431 21.056345 z" stroke-linecap="round"/>
</g>
		<g transform="matrix(1 0 0 1 -42.2782 -25.1)">
<path style="stroke: none; stroke-width: 1; stroke-dasharray: none; stroke-linecap: butt; stroke-dashoffset: 0; stroke-linejoin: miter; stroke-miterlimit: 4; is-custom-font: none; font-file-url: none; fill: rgb(25,169,8); fill-rule: nonzero; opacity: 1;" vector-effect="non-scaling-stroke" transform=" translate(-19.2117, -30.9)" d="M 24.571281 37.628925 C 22.392809 42.190216 22.151754 47.422523 16.945807 49.748806 C 12.56856 51.704784 7.891317 51.062157 4.631936 47.57885 C 2.230159 45.012066 1.414022 42.597912 4.039911 39.350777 C 9.459962 32.648434 14.88795 25.88991 19.570576 18.672995 C 23.543074 12.55054 28.121895 9.286526 36.009312 11.827633 C 32.331516 20.180197 28.559654 28.746391 24.571281 37.628925 z" stroke-linecap="round"/>
</g>
		<g transform="matrix(1 0 0 1 42.8566 -25.0521)">
<path style="stroke: none; stroke-width: 1; stroke-dasharray: none; stroke-linecap: butt; stroke-dashoffset: 0; stroke-linejoin: miter; stroke-miterlimit: 4; is-custom-font: none; font-file-url: none; fill: rgb(25,169,8); fill-rule: nonzero; opacity: 1;" vector-effect="non-scaling-stroke" transform=" translate(-104.3466, -30.9479)" d="M 100.617752 41.452286 C 96.166519 31.430923 91.875465 21.75798 87.563377 12.037601 C 95.821655 9.921965 97.551666 10.492907 102.346291 16.832817 C 107.660339 23.859543 112.902664 30.941191 118.277313 37.921074 C 120.378304 40.649563 122.702332 43.251881 119.687241 46.644657 C 116.764557 49.933453 113.217171 51.924065 108.653679 50.494713 C 104.381989 49.156757 101.400917 46.511559 100.617752 41.452286 z" stroke-linecap="round"/>
</g>
		<g transform="matrix(1 0 0 1 0.3195 -51.2638)">
<path style="stroke: none; stroke-width: 1; stroke-dasharray: none; stroke-linecap: butt; stroke-dashoffset: 0; stroke-linejoin: miter; stroke-miterlimit: 4; is-custom-font: none; font-file-url: none; fill: rgb(19,167,2); fill-rule: nonzero; opacity: 1;" vector-effect="non-scaling-stroke" transform=" translate(-61.8095, -4.7362)" d="M 22.966583 2.45428 C 48.64616 2.03663 74.240219 2.050356 100.286118 2.078186 C 100.737953 3.740989 100.737953 5.389688 100.737953 7.406186 C 74.859833 7.406186 49.050365 7.406186 22.881067 7.406186 C 22.881067 5.831732 22.881067 4.358694 22.966583 2.45428 z" stroke-linecap="round"/>
</g>
		<g transform="matrix(1 0 0 1 -19.9465 32.5416)">
<path style="stroke: none; stroke-width: 1; stroke-dasharray: none; stroke-linecap: butt; stroke-dashoffset: 0; stroke-linejoin: miter; stroke-miterlimit: 4; is-custom-font: none; font-file-url: none; fill: rgb(20,168,3); fill-rule: nonzero; opacity: 1;" vector-effect="non-scaling-stroke" transform=" translate(-41.5435, -88.5415)" d="M 54.98558 109.387741 C 46.290493 109.864853 37.638424 109.884827 28.522385 109.873169 C 28.058416 95.726555 28.058416 81.61158 28.058416 67.207794 C 36.986099 67.207794 45.71777 67.207794 55.028599 67.207794 C 55.028599 81.107452 55.028599 95.01902 54.98558 109.387741 z" stroke-linecap="round"/>
</g>
</g>
</g>
</svg>