<svg version="1.1" id="Layer_1" xmlns="http://www.w3.org/2000/svg" xmlns:xlink="http://www.w3.org/1999/xlink" x="0px" y="0px"
	 width="100%" viewBox="0 0 349 103" enable-background="new 0 0 349 103" xml:space="preserve">
<path fill="#FCFCFC" opacity="1.000000" stroke="none" 
	d="
M11.340837,103.771797 
	C7.677598,104.000000 3.100692,105.291794 1.390845,103.631310 
	C-0.269800,102.018585 1.001721,97.377060 1.001441,94.065590 
	C0.998961,64.662338 1.080500,35.258595 0.900924,5.856438 
	C0.877759,2.063669 1.267557,0.448509 5.624786,0.881505 
	C10.724151,1.388251 15.912455,1.000000 21.531088,1.000000 
	C22.152275,1.171087 22.304548,1.342174 22.637280,1.804813 
	C23.377403,3.955240 23.131010,6.144536 25.237280,7.731503 
	C25.792685,8.653174 25.896603,9.347052 25.784195,10.421052 
	C20.457972,19.282782 13.853305,26.813820 8.109523,34.970497 
	C6.457896,37.315956 3.562814,39.458160 5.660416,42.875648 
	C7.237020,45.444309 9.859917,46.908627 12.783990,46.832874 
	C16.417221,46.738747 19.101139,44.522961 20.324198,41.163528 
	C23.006407,33.796188 26.644520,26.855473 29.590408,19.615452 
	C30.785202,16.679047 32.521488,14.018161 33.632011,10.667332 
	C33.836132,9.539889 34.088921,8.816751 34.762112,7.853160 
	C36.044643,6.978257 37.104832,6.913656 38.572727,7.402155 
	C39.563679,8.165748 39.815472,8.911633 39.880943,10.119520 
	C36.946068,18.977516 32.831390,26.941458 29.279898,35.147194 
	C26.865568,40.725517 27.639402,43.586849 32.259747,45.864208 
	C36.323227,47.867088 40.799740,45.933643 43.377884,41.352322 
	C45.210438,38.095901 43.980373,34.001034 46.757992,30.754250 
	C47.763405,30.189880 48.501507,30.139614 49.594730,30.502525 
	C51.192730,33.043026 50.130783,35.538868 50.311626,37.970005 
	C50.679710,42.918354 54.158833,46.744057 58.601624,46.843212 
	C62.570019,46.931782 66.206085,43.068638 66.626266,38.304710 
	C66.828056,36.016876 66.404320,33.664310 67.560837,31.144962 
	C68.215034,30.552940 68.691124,30.412954 69.576248,30.507101 
	C72.695457,33.015469 72.730591,36.476177 73.474716,39.683788 
	C74.640877,44.710640 78.821045,47.371700 83.512589,46.168896 
	C88.584862,44.868484 90.279434,41.226051 88.374748,36.343342 
	C85.112427,27.980299 80.461884,20.214294 77.788155,11.208735 
	C77.788742,10.019538 77.953827,9.248701 78.496895,8.173162 
	C79.406204,7.318769 80.180626,7.166608 81.397781,7.380250 
	C82.731552,8.092900 83.101685,9.084340 83.667923,10.382868 
	C87.822739,20.592802 92.555145,30.145826 96.365669,40.107372 
	C98.656372,46.095749 103.845627,48.046822 108.724854,45.338333 
	C112.456657,43.266788 113.217766,40.661827 110.706856,37.162361 
	C105.855179,30.400578 100.628609,23.913769 95.789726,17.138605 
	C94.532310,15.378034 93.130241,13.717985 92.185684,11.343577 
	C91.951805,10.264924 91.983360,9.539708 92.245590,8.473318 
	C93.384689,6.511652 93.775894,4.702162 94.052406,2.485754 
	C94.280632,1.942046 94.405678,1.739748 94.765366,1.268725 
	C178.605835,1.000000 262.211731,1.034362 345.817322,0.888346 
	C349.599274,0.881741 350.102570,1.880410 350.086639,5.311716 
	C349.939728,36.954674 349.949554,68.598801 350.079559,100.241905 
	C350.092285,103.339790 349.410980,104.084930 346.263123,104.080879 
	C266.487946,103.978165 186.712616,104.000000 106.468658,104.000000 
	C105.833534,103.784950 105.667061,103.569893 105.292603,103.004471 
	C103.988548,92.860771 104.827148,83.035179 104.609787,73.226692 
	C104.491737,67.899780 104.532654,62.567356 104.607002,57.239399 
	C104.647232,54.356785 103.464577,52.934128 100.746826,51.695374 
	C95.657700,49.375729 91.195168,48.473972 85.828316,51.530048 
	C81.986031,53.717976 77.312088,52.571011 73.438957,50.122696 
	C71.040672,48.606670 68.910019,48.659851 66.462578,50.040283 
	C60.936623,53.157093 55.325630,53.110855 49.882118,49.780739 
	C47.837360,48.529842 46.227520,48.352051 43.993141,49.778622 
	C38.638710,53.197227 32.889248,52.796425 27.299965,50.225922 
	C20.950514,47.305817 13.447618,51.915768 13.405074,58.866356 
	C13.319453,72.854164 13.617657,86.843391 13.174757,101.231491 
	C13.008812,101.889786 12.915796,102.146637 12.590710,102.741859 
	C12.132983,103.234688 11.907329,103.389145 11.340837,103.771797 
z"/>
<path fill="#E3F5E1" opacity="1.000000" stroke="none" 
	d="
M105.266968,102.265732 
	C105.747566,102.763481 105.810936,103.008034 105.937157,103.626297 
	C88.312439,104.000000 70.624878,104.000000 52.468658,104.000000 
	C51.813042,103.756119 51.626083,103.512238 51.215656,102.866287 
	C49.741749,93.695030 50.779797,84.876877 50.435558,76.087807 
	C50.364025,74.261536 50.452080,72.429756 50.416489,70.601288 
	C50.308071,65.031914 49.957500,64.664391 44.450813,64.585548 
	C41.125969,64.537941 37.799438,64.535141 34.474682,64.586525 
	C29.033686,64.670624 28.634241,65.048523 28.591784,70.674133 
	C28.530296,78.821121 28.585537,86.968811 28.568752,95.116173 
	C28.564304,97.275253 28.664997,99.441559 28.150509,102.026154 
	C27.867689,102.735832 27.717934,103.004448 27.284090,103.636536 
	C25.933331,104.000000 24.866661,104.000000 23.399996,104.000000 
	C22.800776,103.739075 22.601553,103.478157 22.176605,102.779587 
	C20.763773,89.045502 21.410887,75.729118 21.589125,62.421383 
	C21.641073,58.542778 24.467926,57.515404 27.787367,57.445927 
	C35.450527,57.285542 43.117710,57.233452 50.777370,57.451706 
	C56.128300,57.604172 57.428322,58.963985 57.557934,64.524246 
	C57.783131,74.184929 57.599602,83.850693 57.642159,93.514191 
	C57.676125,101.227402 57.782589,101.342262 65.431206,101.356667 
	C76.261238,101.377075 87.091347,101.346008 97.921356,101.373878 
	C100.244385,101.379852 102.597107,101.189209 105.266968,102.265732 
z"/>
<path fill="#B0E2AA" opacity="1.000000" stroke="none" 
	d="
M94.531342,1.000000 
	C94.993813,1.184860 94.987633,1.369720 94.948227,1.830029 
	C93.298592,3.596010 91.263123,3.609413 89.270424,3.615371 
	C68.796867,3.676583 48.323212,3.667359 27.849609,3.623209 
	C26.185171,3.619620 24.513212,3.564387 22.572971,2.504371 
	C22.143114,2.000070 22.106529,1.801250 22.034973,1.301214 
	C46.020893,1.000000 70.041786,1.000000 94.531342,1.000000 
z"/>
<path fill="#D9F1D6" opacity="1.000000" stroke="none" 
	d="
M51.559875,102.585686 
	C51.960964,103.066360 51.970398,103.253021 51.989918,103.719833 
	C43.979099,104.000000 35.958199,104.000000 27.468649,104.000000 
	C27.017735,103.790527 27.035469,103.581055 27.087830,103.058167 
	C35.094643,100.308121 43.127403,101.086006 51.559875,102.585686 
z"/>
<path fill="#D9F1D6" opacity="1.000000" stroke="none" 
	d="
M22.515301,102.502747 
	C22.922268,102.984444 22.942093,103.187218 22.980959,103.694992 
	C19.638712,104.000000 16.277426,104.000000 12.458069,104.000000 
	C12.000000,104.000000 11.747867,103.625313 11.655678,103.419174 
	C11.563490,103.213043 11.769592,103.009445 11.912502,102.985794 
	C15.271194,100.781494 18.680565,101.241928 22.515301,102.502747 
z"/>
<path fill="#FAFDF9" opacity="1.000000" stroke="none" 
	d="
M11.425514,103.305077 
	C11.563490,103.213043 11.856423,103.565102 11.928211,103.782547 
	C12.000000,104.000000 11.500000,104.000000 11.250000,104.000000 
	C11.045212,103.774826 11.141059,103.573860 11.425514,103.305077 
z"/>
<path fill="#16A906" opacity="1.000000" stroke="none" 
	d="
M23.041740,102.342323 
	C19.587906,102.821434 16.273365,102.861191 12.507118,102.931549 
	C11.183962,86.348351 11.925655,69.722404 11.664469,53.104275 
	C11.642327,51.695488 11.971065,50.831905 13.571596,50.998463 
	C13.736012,51.015572 13.904534,51.006607 14.070251,50.995869 
	C17.965620,50.743385 20.480904,47.272408 23.589605,46.372772 
	C26.463818,45.541000 28.971249,50.657978 32.815842,50.950684 
	C37.236160,51.287220 41.530964,51.035706 44.800770,47.522724 
	C46.279572,45.933945 47.119335,45.546265 49.088913,47.298267 
	C55.031822,52.584671 61.902847,52.581371 67.959892,47.407223 
	C69.786797,45.846619 70.601334,45.891357 72.365067,47.435566 
	C78.160385,52.509594 85.019371,52.574303 90.779938,47.486576 
	C92.841583,45.665730 93.979469,45.860455 95.588417,47.690392 
	C97.188416,49.510155 99.506134,50.772224 101.702461,50.730095 
	C105.752495,50.652393 105.638039,52.842911 105.620819,55.742294 
	C105.529922,71.044754 105.576241,86.348030 105.629578,102.084976 
	C89.888824,103.428993 74.079399,102.648766 58.279274,102.927292 
	C55.187538,102.981781 55.890442,100.796936 55.884705,99.122574 
	C55.844208,87.302330 55.707901,75.478691 55.951981,63.663364 
	C56.029316,59.919857 55.014778,58.801105 51.241531,58.945896 
	C43.428268,59.245712 35.587914,59.239403 27.774036,58.947884 
	C24.093325,58.810570 23.431536,60.157433 23.450287,63.490746 
	C23.522310,76.293907 23.296038,89.098747 23.041740,102.342323 
z"/>
<path fill="#1BAA0B" opacity="1.000000" stroke="none" 
	d="
M260.186584,54.810673 
	C260.882904,58.984138 261.516205,62.742264 262.380707,67.872574 
	C263.462921,63.460266 264.496338,60.379574 264.910156,57.217785 
	C265.271179,54.459484 266.709503,53.419147 269.145905,53.418182 
	C271.577667,53.417217 273.730652,53.941322 274.428802,56.874836 
	C275.186157,60.057247 276.190186,63.180954 277.788086,66.287621 
	C278.436676,61.176163 279.263947,56.078659 279.664703,50.947842 
	C279.892914,48.026184 281.465485,47.220234 283.860535,47.361866 
	C286.613068,47.524632 288.163422,48.996510 287.753204,51.947353 
	C286.838684,58.526043 285.823181,65.076363 284.116364,71.521011 
	C283.196503,74.994019 280.697205,75.217628 277.977356,75.250923 
	C275.233002,75.284531 272.606049,75.077126 271.881531,71.537895 
	C271.458069,69.469360 270.651733,67.479202 269.720306,64.504181 
	C269.022766,66.927887 268.361450,68.361916 268.232269,69.842361 
	C267.894287,73.715881 265.968842,75.347252 262.064880,75.329689 
	C258.121796,75.311951 255.821793,73.733269 255.067810,69.817276 
	C253.970123,64.116219 252.844757,58.418331 251.584625,52.751690 
	C251.019653,50.211136 250.789780,48.093197 254.096695,47.498165 
	C257.312531,46.919518 259.225677,48.197304 259.780365,51.423290 
	C259.949097,52.404625 260.012115,53.404140 260.186584,54.810673 
z"/>
<path fill="#0A0A0A" opacity="1.000000" stroke="none" 
	d="
M133.076935,2.814815 
	C137.883102,6.001638 137.067856,11.582592 139.758347,15.965259 
	C140.886749,12.439017 142.131180,9.193708 142.938766,5.843107 
	C143.725876,2.577459 146.063110,2.294753 148.629135,2.376823 
	C151.382141,2.464875 153.409042,3.531960 153.652481,6.718952 
	C154.158813,13.347315 154.703400,19.973747 155.340408,26.590561 
	C155.545364,28.719635 155.323059,30.248507 152.707596,30.225773 
	C150.340912,30.205202 147.835495,30.453531 147.648056,27.012169 
	C147.422195,22.865370 147.187149,18.719072 146.931519,14.132068 
	C144.984604,16.201233 144.805832,18.694876 144.198135,20.866335 
	C143.546066,23.196405 142.397400,24.175158 140.050659,24.246510 
	C137.605621,24.320854 135.879379,23.636192 135.151627,21.078829 
	C134.447433,18.604290 133.576462,16.177208 131.726868,13.830521 
	C131.726868,18.210062 131.632736,22.592363 131.761093,26.968140 
	C131.842102,29.729956 130.418716,30.349003 128.060013,30.259071 
	C125.653679,30.167324 123.745979,29.725782 123.926720,26.655727 
	C124.337044,19.685898 124.330559,12.668983 125.180542,5.755679 
	C125.727699,1.305436 129.602539,2.324936 133.076935,2.814815 
z"/>
<path fill="#19AA08" opacity="1.000000" stroke="none" 
	d="
M67.497833,30.722649 
	C67.511124,33.256367 67.673866,35.400188 68.011139,37.516190 
	C68.636856,41.441784 67.027809,44.309464 63.822582,46.316059 
	C60.451527,48.426460 56.864532,48.496265 53.483418,46.422955 
	C50.311928,44.478191 48.465195,41.657154 49.057186,37.699417 
	C49.350788,35.736588 49.631439,33.771820 49.881310,31.405006 
	C48.838696,29.713142 48.819088,28.250443 49.096035,26.736908 
	C49.811062,22.829231 50.549896,18.938347 50.683239,14.936789 
	C50.794098,11.610033 52.810505,9.706813 56.114193,9.650949 
	C59.637135,9.591380 64.320953,8.296123 65.639534,12.778364 
	C67.291412,18.393574 68.577438,24.294176 67.497833,30.722649 
z"/>
<path fill="#19A908" opacity="1.000000" stroke="none" 
	d="
M47.209614,30.630222 
	C46.358315,33.908775 45.894737,36.836693 45.256321,39.725975 
	C43.759750,46.498981 37.381035,49.668999 31.172138,46.790878 
	C26.524820,44.636620 25.201200,41.038719 27.320097,36.340645 
	C31.063681,28.040258 34.803352,19.738110 38.771465,11.160604 
	C40.652771,9.464013 42.656349,9.554836 44.654236,9.534284 
	C48.555283,9.494156 50.592033,11.395071 50.418495,15.288542 
	C50.190273,20.408997 49.654873,25.498302 47.209614,30.630222 
z"/>
<path fill="#18A908" opacity="1.000000" stroke="none" 
	d="
M78.567017,10.971272 
	C82.322472,19.230381 85.700172,27.149574 89.250412,34.990643 
	C90.650856,38.083672 92.390419,40.964172 89.403442,44.101971 
	C86.709732,46.931702 83.640755,48.506897 79.637405,47.559578 
	C75.531898,46.588093 72.858704,44.167248 72.051430,39.946655 
	C71.523132,37.184574 71.117180,34.399090 70.430809,31.308601 
	C66.990982,25.648010 67.303947,19.574944 66.820419,13.711912 
	C66.613342,11.201122 68.533684,9.829828 70.994728,9.657180 
	C73.459846,9.484246 75.997871,9.066217 78.567017,10.971272 
z"/>
<path fill="#19A908" opacity="1.000000" stroke="none" 
	d="
M34.566620,11.005010 
	C30.434853,21.389463 25.338545,31.084625 21.767038,41.472775 
	C19.586956,47.813793 11.114686,49.902538 6.050364,45.510612 
	C3.342538,43.162315 1.980195,40.626530 4.845926,37.012680 
	C11.557788,28.548639 17.923357,19.809992 24.712809,10.987254 
	C28.055416,9.007792 31.147512,8.999252 34.566620,11.005010 
z"/>
<path fill="#19A908" opacity="1.000000" stroke="none" 
	d="
M92.586624,10.766941 
	C99.115379,19.336828 105.293121,27.571644 111.376411,35.875652 
	C112.957443,38.033848 115.541512,40.020924 113.097298,43.288597 
	C110.702812,46.489765 107.575516,48.257019 103.688652,47.768623 
	C99.869545,47.288746 96.745056,45.215908 95.436485,41.377857 
	C91.948235,31.146769 86.694801,21.683510 82.743416,11.295992 
	C85.835678,8.837311 88.993523,9.140912 92.586624,10.766941 
z"/>
<path fill="#090909" opacity="1.000000" stroke="none" 
	d="
M197.645935,73.255356 
	C196.582703,70.082680 195.692032,67.255440 194.580017,63.725590 
	C193.671021,66.697662 192.738968,68.926765 192.341690,71.247421 
	C191.823639,74.273537 190.168076,75.529091 187.259354,75.515450 
	C184.349991,75.501816 182.008102,74.665527 181.280319,71.455132 
	C180.180496,66.603569 179.098404,61.747963 177.988174,56.898792 
	C177.456955,54.578575 177.945663,52.942818 180.653580,52.703796 
	C183.047287,52.492512 184.973938,52.975834 185.394791,55.810406 
	C185.928635,59.406006 186.498718,62.996227 187.718491,66.653503 
	C188.477081,63.705799 189.427856,60.790852 189.937454,57.800716 
	C190.400421,55.084366 192.019760,54.162254 194.414917,54.144875 
	C196.747940,54.127945 198.582870,54.836803 199.154297,57.545864 
	C199.768478,60.457512 200.672363,63.308044 201.444870,66.188385 
	C203.372391,63.192631 203.375931,59.684261 203.639160,56.364601 
	C203.892761,53.166718 205.444397,52.457947 208.135971,52.673824 
	C210.813171,52.888554 211.360840,54.578041 211.064667,56.863117 
	C210.358795,62.309227 209.141586,67.661385 207.351013,72.829628 
	C206.168243,76.243553 201.928223,76.451393 197.645935,73.255356 
z"/>
<path fill="#0B0B0B" opacity="1.000000" stroke="none" 
	d="
M144.140762,73.331680 
	C139.195282,75.903999 134.364380,76.154388 129.298569,75.213898 
	C125.992775,74.600151 124.300301,73.114769 124.370850,69.600723 
	C124.487541,63.788414 124.516609,57.968834 124.353432,52.158752 
	C124.273369,49.308090 125.385185,47.741268 128.119370,47.315681 
	C132.080322,46.699135 136.065323,46.491188 139.995804,47.444675 
	C145.133865,48.691116 148.621078,51.926685 149.647568,57.085556 
	C150.874146,63.249954 150.113144,69.047722 144.140762,73.331680 
z"/>
<path fill="#22AC12" opacity="1.000000" stroke="none" 
	d="
M22.141626,2.593316 
	C46.117996,2.130698 70.056297,2.062505 94.454796,2.049896 
	C94.607208,4.011796 96.249100,6.318540 93.375374,7.891322 
	C89.708054,10.228645 86.264915,9.821191 82.387199,8.300987 
	C81.245491,7.940220 80.491325,7.873805 79.368744,7.907018 
	C76.438942,10.230712 73.327110,9.416261 70.416801,9.466345 
	C61.979580,9.611546 53.540043,9.576888 45.101521,9.488957 
	C43.288685,9.470067 41.438118,9.646115 39.394684,8.311510 
	C37.928284,7.941597 36.856819,7.874514 35.392792,7.907404 
	C32.044094,10.087981 28.941366,9.859488 25.386257,8.300161 
	C21.218315,7.958873 22.181681,5.172834 22.141626,2.593316 
z"/>
<path fill="#090909" opacity="1.000000" stroke="none" 
	d="
M164.263184,25.796730 
	C162.130066,21.389097 160.680969,17.151459 159.609375,12.780614 
	C159.158356,10.940948 157.746185,8.795287 160.839294,7.940518 
	C163.509445,7.202631 165.903915,7.537406 166.868576,10.625512 
	C168.049530,14.406072 169.095978,18.228647 170.367798,22.608953 
	C172.499527,18.387709 173.191620,14.439253 173.885788,10.554998 
	C174.453018,7.381220 176.582321,7.599720 178.726166,7.733614 
	C181.421158,7.901931 181.945587,9.756137 181.507584,12.004266 
	C179.898697,20.261955 176.945602,27.974304 171.904999,34.779953 
	C170.475143,36.710503 168.639038,38.081108 166.024765,38.004185 
	C164.146347,37.948914 162.843597,37.050430 162.103195,35.408115 
	C161.375610,33.794220 162.643112,32.967381 163.666183,32.141594 
	C165.854126,30.375540 167.763489,28.613281 164.263184,25.796730 
z"/>
<path fill="#0C0C0C" opacity="1.000000" stroke="none" 
	d="
M213.792786,66.611420 
	C216.232483,60.018452 222.246002,62.130569 226.969910,60.496944 
	C225.187225,56.851963 222.066376,58.138447 219.375290,58.425331 
	C217.659958,58.608204 215.656036,60.079048 215.048599,57.127098 
	C214.532562,54.619286 216.101868,53.490921 218.282852,52.952587 
	C221.915207,52.056007 225.567383,51.929852 229.135956,53.117683 
	C232.012848,54.075294 234.115295,55.981903 234.315506,59.188877 
	C234.543427,62.839764 234.539932,66.507904 234.533783,70.168365 
	C234.532471,70.954384 234.247772,71.841087 233.821747,72.507675 
	C232.001221,75.356194 224.623718,76.601273 219.276215,75.100380 
	C215.125916,73.935501 213.154282,71.339088 213.792786,66.611420 
z"/>
<path fill="#1CAB0C" opacity="1.000000" stroke="none" 
	d="
M341.390289,75.579453 
	C338.125702,76.092499 335.311096,75.783279 332.616028,74.847633 
	C329.474030,73.756821 327.763000,71.560310 327.842316,68.069061 
	C327.923920,64.477554 329.877106,62.576809 333.186859,61.900017 
	C335.735077,61.378948 338.319183,61.033367 341.319641,60.538448 
	C339.008789,56.938629 336.000793,58.053940 333.261688,58.581341 
	C331.557373,58.909492 329.869965,59.581661 329.245728,57.256165 
	C328.654053,55.051998 330.003693,53.836273 331.868469,53.082497 
	C341.502411,49.188274 348.892517,54.098438 348.903015,64.390305 
	C348.912415,73.607117 348.804138,73.776398 341.390289,75.579453 
z"/>
<path fill="#0A0A0A" opacity="1.000000" stroke="none" 
	d="
M159.756470,52.601330 
	C162.998749,51.949718 165.812866,52.238407 168.522614,53.108402 
	C171.824936,54.168648 173.817078,56.445721 173.987411,60.030109 
	C174.074066,61.853691 174.113464,63.688194 174.019577,65.509789 
	C173.849289,68.813904 175.298187,72.806740 170.720215,74.433365 
	C165.513641,76.283356 160.283768,76.685341 155.457382,73.448616 
	C153.183701,71.923820 152.648712,69.390244 153.161819,66.765968 
	C153.654556,64.245895 155.321823,62.621780 157.768753,62.066437 
	C160.507156,61.444942 163.310196,61.108219 166.283035,60.614712 
	C165.231262,57.160042 162.443893,58.351692 160.205673,58.116760 
	C158.284851,57.915138 155.409592,61.088791 154.600296,56.993774 
	C153.915024,53.526295 156.851929,53.124565 159.756470,52.601330 
z"/>
<path fill="#1BAA0A" opacity="1.000000" stroke="none" 
	d="
M294.259094,53.144142 
	C296.794189,52.753281 298.935242,52.216942 301.062561,52.266659 
	C308.400970,52.438152 311.165253,55.352581 311.243286,62.662544 
	C311.253906,63.658218 311.299561,64.657501 311.236603,65.649246 
	C311.027161,68.949181 312.474182,72.951851 307.879547,74.522453 
	C302.669739,76.303329 297.437897,76.745049 292.643158,73.406609 
	C290.602448,71.985703 289.899689,69.678192 290.305023,67.206573 
	C290.748016,64.505379 292.328827,62.642574 295.029846,62.043831 
	C297.749420,61.440964 300.521423,61.074730 303.575439,60.552681 
	C301.828186,57.005024 298.918671,58.158356 296.328461,58.372494 
	C294.840973,58.495468 293.059692,60.162380 292.057404,57.792446 
	C291.238068,55.855137 291.872620,54.224983 294.259094,53.144142 
z"/>
<path fill="#FAFDF9" opacity="1.000000" stroke="none" 
	d="
M38.999794,8.368163 
	C52.027142,7.940018 65.054527,7.871354 78.541122,7.904669 
	C78.981796,8.841216 78.963257,9.675785 78.910202,10.926414 
	C67.635803,10.017560 67.647072,10.016015 69.122742,20.776308 
	C69.549210,23.886047 69.890633,27.007450 70.238113,30.558311 
	C69.552689,31.017904 68.900177,31.042692 67.758652,31.096291 
	C66.394150,25.553022 65.315262,20.003132 64.704308,14.402200 
	C64.167198,9.478209 60.626015,11.190935 58.001961,11.029763 
	C55.482819,10.875036 52.709557,10.172861 52.374874,14.446138 
	C51.961491,19.724218 50.851624,24.947746 49.943687,30.598465 
	C49.108852,31.001198 48.373035,31.000311 47.269279,30.998920 
	C46.801472,26.144739 48.013443,21.460865 48.878189,16.747683 
	C49.652645,12.526605 48.960503,10.040048 43.898800,10.949313 
	C42.612339,11.180408 41.247112,10.972986 39.458172,10.925782 
	C38.998791,10.165554 38.999313,9.446600 38.999794,8.368163 
z"/>
<path fill="#1AAA0A" opacity="1.000000" stroke="none" 
	d="
M316.231110,46.577717 
	C321.884491,43.883381 323.928009,44.979717 323.975311,50.384369 
	C324.036316,57.358044 323.908630,64.334137 324.034912,71.306061 
	C324.079956,73.793365 323.845734,75.407227 320.721405,75.329262 
	C317.640411,75.252373 316.097107,74.128937 316.120728,70.927887 
	C316.179504,62.957825 316.147705,54.987095 316.231110,46.577717 
z"/>
<path fill="#010101" opacity="1.000000" stroke="none" 
	d="
M243.716187,52.981369 
	C246.843796,53.250267 247.169540,55.121456 247.162338,57.269173 
	C247.145706,62.230927 247.090729,67.194229 247.194763,72.153885 
	C247.235886,74.114311 246.891281,75.325829 244.577072,75.224159 
	C242.404831,75.128731 239.866409,75.457336 239.753265,72.388992 
	C239.540131,66.609123 239.589523,60.817780 239.617004,55.031616 
	C239.629486,52.402569 241.747406,53.135857 243.716187,52.981369 
z"/>
<path fill="#0E0E0E" opacity="1.000000" stroke="none" 
	d="
M202.136810,94.296005 
	C198.750473,94.389412 195.318527,96.386620 192.336761,93.656334 
	C191.145309,92.565361 190.723785,94.083199 189.943832,94.399475 
	C187.135544,95.538231 184.241562,95.906006 182.430328,93.005196 
	C181.240402,91.099396 181.363449,88.493477 183.561279,87.255959 
	C186.659470,85.511497 189.598007,85.889870 191.468582,89.694183 
	C193.007812,86.521614 195.603165,86.009163 198.676773,86.617371 
	C202.426392,87.359360 200.597931,90.645454 201.732330,93.034286 
	C202.083389,93.584305 202.192947,93.787857 202.136810,94.296005 
z"/>
<path fill="#0F0F0F" opacity="1.000000" stroke="none" 
	d="
M175.722717,91.193512 
	C173.698059,90.773239 172.302109,90.895432 172.464859,93.137306 
	C172.579453,94.715836 171.638535,95.086060 170.272095,95.018105 
	C168.744659,94.942154 168.966599,93.820160 168.954010,92.880516 
	C168.922806,90.552376 168.955734,88.223457 168.939102,85.895020 
	C168.931335,84.808296 169.067123,83.934860 170.494949,83.972542 
	C171.620209,84.002228 172.483337,84.248215 172.445786,85.584671 
	C172.402924,87.109810 172.725372,88.092293 174.631409,88.014435 
	C176.453690,87.939995 176.254578,86.781799 176.274185,85.640388 
	C176.303787,83.918427 177.497711,83.934578 178.705902,84.018486 
	C180.208450,84.122833 179.913559,85.307930 179.938080,86.228775 
	C179.982361,87.890869 180.135086,89.581993 179.895172,91.209801 
	C179.697418,92.551651 181.176346,94.830009 178.261200,94.993820 
	C175.387634,95.155289 176.616180,92.742950 175.722717,91.193512 
z"/>
<path fill="#171717" opacity="1.000000" stroke="none" 
	d="
M242.135101,83.883553 
	C247.427017,84.496681 249.631866,86.823570 248.811890,90.659729 
	C247.913422,94.862938 244.791321,95.647476 241.211090,94.973122 
	C237.224091,94.222130 236.495865,91.190758 237.161911,87.769081 
	C237.614990,85.441544 239.303696,84.136940 242.135101,83.883553 
z"/>
<path fill="#0E0E0E" opacity="1.000000" stroke="none" 
	d="
M280.937195,91.236740 
	C279.351013,91.581787 277.654327,91.107391 277.533203,93.064392 
	C277.442017,94.538162 276.808868,95.122978 275.372681,95.013885 
	C273.110352,94.842018 274.112549,93.105515 273.981201,92.005356 
	C273.825684,90.702553 273.757050,89.332001 273.995300,88.055092 
	C274.253662,86.670341 272.727631,84.223373 275.337036,84.107758 
	C277.935547,83.992599 281.174133,82.690338 283.008667,85.808105 
	C284.283447,87.974586 283.707153,89.940071 280.937195,91.236740 
z"/>
<path fill="#1E1E1E" opacity="1.000000" stroke="none" 
	d="
M255.952515,89.381226 
	C255.991028,87.793373 255.807358,86.517349 257.577545,86.523148 
	C258.926605,86.527573 259.260681,87.409309 259.166931,88.476013 
	C258.913300,91.362297 261.032043,95.780403 254.916046,94.970802 
	C253.498489,94.783150 251.857315,95.543968 250.971451,93.872025 
	C249.915955,91.879883 250.170044,89.676010 250.450974,87.558548 
	C250.573303,86.636627 251.599152,86.372215 252.429520,86.583282 
	C254.272446,87.051743 253.548706,88.655449 253.778885,89.860947 
	C253.957275,90.795113 253.132217,92.531395 255.038193,92.312508 
	C256.251099,92.173218 255.857376,90.754051 255.952515,89.381226 
z"/>
<path fill="#191919" opacity="1.000000" stroke="none" 
	d="
M327.761688,87.164970 
	C331.116119,85.739296 330.356171,89.080627 331.583496,90.113480 
	C332.721497,89.861214 332.766083,88.952850 332.919922,88.178284 
	C333.217285,86.681427 334.265961,86.172722 335.445618,86.741234 
	C336.642242,87.317917 335.930695,88.475586 335.559204,89.343277 
	C334.458771,91.913483 333.982635,94.764244 332.203766,97.028374 
	C331.140350,98.381927 329.282074,98.884422 328.227051,97.988342 
	C326.203979,96.270065 329.004547,96.517838 329.406860,95.765373 
	C330.593018,93.546669 328.361237,91.854805 327.981873,89.458557 
	C327.616272,88.625160 327.477600,88.101646 327.761688,87.164970 
z"/>
<path fill="#151515" opacity="1.000000" stroke="none" 
	d="
M128.934326,85.698807 
	C129.996017,83.653313 131.454819,83.913361 133.295288,84.102425 
	C132.207031,87.644348 128.875977,90.093880 129.436813,94.031845 
	C129.566101,94.939659 128.341492,95.000290 127.508682,95.033653 
	C126.522942,95.073151 125.831680,94.674469 125.998444,93.653183 
	C126.638260,89.734955 123.124985,87.561440 122.105980,84.311417 
	C124.017303,83.715164 125.761101,83.532738 126.722183,85.711197 
	C127.271843,86.957123 127.879814,87.157433 128.934326,85.698807 
z"/>
<path fill="#202020" opacity="1.000000" stroke="none" 
	d="
M302.038879,95.150604 
	C298.267609,94.919182 296.908051,92.951408 297.395233,89.809135 
	C297.788574,87.271996 299.767181,86.287834 302.120026,86.306503 
	C304.472473,86.325165 306.454742,87.352318 306.807404,89.874756 
	C307.248505,93.029747 305.785126,94.951141 302.038879,95.150604 
z"/>
<path fill="#0E0E0E" opacity="1.000000" stroke="none" 
	d="
M145.818161,87.696793 
	C147.406662,86.185852 148.610428,86.043465 148.908966,88.340202 
	C149.095413,89.774597 148.594406,91.311813 149.608765,92.771133 
	C151.990524,92.104691 150.968338,90.136681 151.136276,88.731712 
	C151.262222,87.678001 151.322464,86.715584 152.622360,86.617233 
	C154.247086,86.494286 154.420212,87.569717 154.458130,88.859619 
	C154.555298,92.165344 155.327072,95.325157 149.826202,95.107361 
	C143.911667,94.873184 146.291626,90.876785 145.818161,87.696793 
z"/>
<path fill="#181818" opacity="1.000000" stroke="none" 
	d="
M135.593658,93.775620 
	C134.367874,91.059425 133.966080,88.632179 136.660812,87.003540 
	C138.493607,85.895844 140.526352,86.054741 142.314499,87.155151 
	C144.089706,88.247589 144.581970,90.200516 143.906448,91.950111 
	C142.280365,96.161545 139.194183,95.791611 135.593658,93.775620 
z"/>
<path fill="#131313" opacity="1.000000" stroke="none" 
	d="
M245.278534,50.529526 
	C242.566360,51.342216 240.689667,50.763428 239.523865,48.457600 
	C238.746902,46.920860 239.159332,45.540356 240.122009,44.281048 
	C241.290680,42.752296 242.959122,42.585464 244.641266,43.002163 
	C247.868881,43.801708 248.238419,46.799210 245.278534,50.529526 
z"/>
<path fill="#252525" opacity="1.000000" stroke="none" 
	d="
M327.574432,86.821266 
	C327.987366,87.315094 327.996887,87.823662 327.984009,88.713066 
	C326.947662,87.727600 325.819214,88.264847 325.123566,89.234543 
	C323.666626,91.265404 325.560486,92.774338 326.553864,94.629105 
	C324.120911,95.317116 321.807709,95.924721 321.354767,92.823448 
	C320.927277,89.896378 319.136475,86.337250 322.607635,84.164391 
	C325.112335,82.596519 324.396790,87.988998 327.574432,86.821266 
z"/>
<path fill="#474747" opacity="1.000000" stroke="none" 
	d="
M313.725342,87.197174 
	C314.056580,86.897766 314.222076,86.907631 314.387177,86.903282 
	C316.796051,86.839836 314.464264,82.093925 317.555328,83.339134 
	C320.125427,84.374474 318.343109,87.380272 318.960907,89.418716 
	C319.190399,90.175919 319.068970,91.068481 318.981964,91.885956 
	C318.842377,93.197800 319.671906,95.153290 317.163574,95.086533 
	C314.741058,95.022057 315.583282,93.098778 315.362488,91.782677 
	C315.201691,90.824112 315.005127,89.871544 314.382629,88.841583 
	C313.634888,88.398323 313.516663,87.973305 313.725342,87.197174 
z"/>
<path fill="#414141" opacity="1.000000" stroke="none" 
	d="
M290.740906,87.237816 
	C292.417572,87.137985 292.359863,86.056503 292.470184,85.063934 
	C292.635529,83.575577 293.976501,83.960289 294.728668,83.972961 
	C296.116211,83.996323 295.275391,85.067703 295.304962,85.772102 
	C295.394226,87.899513 295.650574,90.020973 295.706543,92.148315 
	C295.738922,93.379066 296.111816,94.979561 294.061676,95.086304 
	C291.629669,95.212929 292.181610,93.392242 292.071747,91.993759 
	C291.994659,91.012215 291.865936,90.034721 291.352844,88.902588 
	C290.644073,88.396210 290.529236,87.986061 290.740906,87.237816 
z"/>
<path fill="#252525" opacity="1.000000" stroke="none" 
	d="
M214.263336,94.677063 
	C212.117340,95.166687 209.649307,95.745514 209.399261,93.007057 
	C209.148788,90.263786 207.022400,87.213165 209.978271,84.658539 
	C211.652771,83.211349 212.484467,84.043396 213.226898,86.011986 
	C216.271484,88.636017 213.921082,91.660103 214.263336,94.677063 
z"/>
<path fill="#1B1B1B" opacity="1.000000" stroke="none" 
	d="
M202.402283,94.425224 
	C201.905273,94.332375 201.883606,94.060623 201.939987,93.583054 
	C204.866348,92.828621 203.023514,90.522476 203.554520,89.095551 
	C204.255737,87.211220 201.987732,83.505394 205.333344,83.610558 
	C208.233810,83.701729 206.377441,87.326836 206.852142,89.328621 
	C207.036072,90.104240 206.819519,90.965645 206.892609,91.778328 
	C207.217209,95.387993 205.576279,95.709587 202.402283,94.425224 
z"/>
<path fill="#1B1B1B" opacity="1.000000" stroke="none" 
	d="
M156.892944,94.908279 
	C156.348801,92.872452 156.179031,90.937737 156.101288,88.999336 
	C156.063736,88.063515 155.888260,86.824272 157.232681,86.695839 
	C158.751205,86.550781 160.300674,86.691010 161.832214,86.782059 
	C161.981567,86.790932 162.099655,87.325401 162.232269,87.615891 
	C158.905685,88.957275 160.983536,93.900970 156.892944,94.908279 
z"/>
<path fill="#1B1B1B" opacity="1.000000" stroke="none" 
	d="
M261.084229,89.332413 
	C261.282349,84.470406 265.051422,88.007103 266.546539,86.465103 
	C268.596771,88.710457 266.014313,88.969406 265.070862,89.946045 
	C264.851624,90.172974 264.754822,90.513733 264.577606,90.786430 
	C263.700897,92.135330 265.783600,95.641998 262.252930,94.832603 
	C259.852142,94.282211 261.571381,91.473862 261.084229,89.332413 
z"/>
<path fill="#1B1B1B" opacity="1.000000" stroke="none" 
	d="
M313.532623,86.655884 
	C313.879425,87.364006 313.867584,87.833496 313.898254,88.534927 
	C311.578461,89.510727 311.247650,91.347755 311.359497,93.468559 
	C311.430389,94.813309 310.553925,95.066437 309.426178,95.019989 
	C308.318970,94.974380 308.253326,94.249748 308.070282,93.381767 
	C307.090576,88.736816 308.347626,86.979568 313.532623,86.655884 
z"/>
<path fill="#1B1B1B" opacity="1.000000" stroke="none" 
	d="
M290.564453,86.682365 
	C290.891327,87.400131 290.875092,87.852013 290.902130,88.526825 
	C288.603943,89.513191 288.238007,91.335426 288.358337,93.468918 
	C288.434448,94.819077 287.546082,95.068268 286.418762,95.019028 
	C285.307983,94.970520 285.251190,94.234306 285.070190,93.368248 
	C284.093964,88.696884 285.330658,86.987610 290.564453,86.682365 
z"/>
<path fill="#090909" opacity="1.000000" stroke="none" 
	d="
M220.068634,88.575539 
	C218.583603,89.969620 219.106598,91.522087 219.137802,92.873886 
	C219.176178,94.535255 218.600143,95.241272 216.535583,94.975006 
	C213.873535,92.421448 214.637955,89.615768 215.594482,86.397614 
	C216.098633,84.825546 215.649536,83.110199 217.787552,83.379517 
	C219.539307,83.600182 218.961777,85.003845 219.102539,86.407928 
	C219.586563,87.189034 220.034592,87.624405 220.068634,88.575539 
z"/>
<path fill="#303030" opacity="1.000000" stroke="none" 
	d="
M220.360901,89.022324 
	C219.700546,88.363068 219.437790,87.854027 219.140930,87.060577 
	C224.047226,86.046837 225.413635,87.437477 224.935791,92.631508 
	C224.831543,93.764702 225.083466,94.987724 223.346664,95.074982 
	C221.759171,95.154732 221.436874,94.273445 221.405045,92.942345 
	C221.374496,91.665062 221.721237,90.298294 220.360901,89.022324 
z"/>
<path fill="#FAFDF9" opacity="1.000000" stroke="none" 
	d="
M82.000252,8.324675 
	C85.367310,7.939160 88.734970,7.871684 92.551384,7.905963 
	C92.996712,8.774885 92.993279,9.542052 92.981354,10.692717 
	C89.890526,11.041742 86.808182,11.007272 83.259369,10.942747 
	C82.006439,10.338324 82.002663,9.490861 82.000252,8.324675 
z"/>
<path fill="#FAFDF9" opacity="1.000000" stroke="none" 
	d="
M24.999796,8.355239 
	C28.036673,7.939342 31.073584,7.871553 34.555359,7.905571 
	C34.980003,8.854024 34.959782,9.700669 34.901386,10.969290 
	C31.871384,11.245444 28.879549,11.099623 25.442104,10.872892 
	C24.997604,10.095772 24.998716,9.399559 24.999796,8.355239 
z"/>
<path fill="#E7E7E7" opacity="1.000000" stroke="none" 
	d="
M215.437866,85.998657 
	C215.889374,88.672607 215.952866,91.363747 216.070831,94.499634 
	C215.663177,94.972290 215.201065,95.000206 214.391724,95.022995 
	C212.618942,92.346901 212.418121,89.658264 213.720276,86.583725 
	C214.024994,86.153618 214.537430,86.084732 215.437866,85.998657 
z"/>
<path fill="#303030" opacity="1.000000" stroke="none" 
	d="
M226.690887,92.309082 
	C228.075760,91.863708 229.554352,91.180206 229.898224,92.774719 
	C230.341263,94.829056 229.511658,96.623016 227.313629,98.191826 
	C226.977310,96.133156 226.688858,94.367393 226.690887,92.309082 
z"/>
<path fill="#14A803" opacity="1.000000" stroke="none" 
	d="
M52.043976,102.426529 
	C43.980198,102.871956 36.008858,102.864204 27.579987,102.800598 
	C27.102257,90.623322 27.150143,78.501099 27.008932,66.381088 
	C26.977743,63.704155 27.549969,62.559364 30.511827,62.663898 
	C36.648083,62.880459 42.800415,62.845749 48.939682,62.678005 
	C51.603016,62.605236 52.317867,63.545437 52.286572,66.110840 
	C52.140747,78.063843 52.169865,90.018974 52.043976,102.426529 
z"/>
<path fill="#F7FCF6" opacity="1.000000" stroke="none" 
	d="
M67.757858,74.904930 
	C67.134544,70.442879 68.092705,67.981537 72.859154,68.971672 
	C76.448570,69.717308 77.150063,67.645607 76.715889,64.717377 
	C76.212799,61.324322 77.417854,60.152763 81.000671,60.181309 
	C84.465675,60.208920 85.507355,61.507874 84.953590,64.568108 
	C84.230820,68.562210 86.171539,69.500923 89.656639,69.000069 
	C92.522491,68.588203 94.132378,69.139946 94.097328,72.818100 
	C94.063133,76.406693 92.938896,77.644714 89.563385,77.062515 
	C85.804398,76.414185 84.317429,77.971466 84.970306,81.692215 
	C85.551483,85.004303 84.103027,85.922195 80.856544,85.908195 
	C77.689919,85.894516 76.102409,85.141251 76.730034,81.764496 
	C77.524780,77.488594 75.256073,76.726433 71.638763,76.984535 
	C70.318855,77.078720 68.088135,78.171829 67.757858,74.904930 
z"/>
<path fill="#EFEFEF" opacity="1.000000" stroke="none" 
	d="
M132.540192,53.868942 
	C138.625916,52.896439 141.447296,54.969833 141.922989,60.234364 
	C142.400208,65.516090 140.090271,68.811279 135.756805,69.213104 
	C133.382217,69.433281 132.012070,68.978546 132.179001,66.113144 
	C132.408829,62.168156 132.298340,58.203335 132.540192,53.868942 
z"/>
<path fill="#EFEFEF" opacity="1.000000" stroke="none" 
	d="
M222.547028,69.868362 
	C220.897110,68.768799 220.464462,67.723778 222.056412,66.699005 
	C223.356735,65.861969 224.910873,65.803551 226.300812,66.094376 
	C227.528870,66.351341 227.207581,67.717995 226.990829,68.568466 
	C226.387238,70.936607 224.394852,69.757187 222.547028,69.868362 
z"/>
<path fill="#ECF8EA" opacity="1.000000" stroke="none" 
	d="
M336.750519,69.847336 
	C334.080750,67.406738 335.921082,66.585991 337.838135,66.226822 
	C339.020264,66.005341 341.048584,65.001694 341.232422,67.500153 
	C341.474609,70.791183 338.992554,69.937531 336.750519,69.847336 
z"/>
<path fill="#E2E2E2" opacity="1.000000" stroke="none" 
	d="
M166.420441,66.448822 
	C167.182922,69.488541 165.770782,70.251183 163.319748,70.091972 
	C162.081558,70.011536 160.866440,69.810341 160.648773,68.456390 
	C160.425262,67.066261 161.504669,66.361061 162.736526,66.197266 
	C163.859192,66.047989 165.016464,66.159111 166.420441,66.448822 
z"/>
<path fill="#ECF8EA" opacity="1.000000" stroke="none" 
	d="
M301.997070,66.013733 
	C304.568878,66.214745 304.173218,67.839615 303.684967,68.929588 
	C302.907562,70.665039 301.119568,70.027092 299.714264,69.932335 
	C298.646332,69.860329 297.737976,69.132408 297.996613,67.961723 
	C298.412689,66.078728 300.133545,66.220833 301.997070,66.013733 
z"/>
<path fill="#151515" opacity="1.000000" stroke="none" 
	d="
M192.299332,91.396919 
	C192.164520,91.570000 191.929733,91.596031 191.694931,91.622055 
	C191.863068,91.498001 192.031204,91.373932 192.299332,91.396919 
z"/>
<path fill="#151515" opacity="1.000000" stroke="none" 
	d="
M195.453232,92.423424 
	C195.532639,92.370125 195.561203,92.581375 195.561203,92.581375 
	C195.561203,92.581375 195.373825,92.476723 195.453232,92.423424 
z"/>
<path fill="#FAFDF9" opacity="1.000000" stroke="none" 
	d="
M245.082291,89.041000 
	C245.131744,91.166901 244.568756,92.381424 242.653961,92.300972 
	C241.540176,92.254173 240.921249,91.500496 240.815063,90.425392 
	C240.689041,89.149239 240.437851,87.656059 241.823318,86.972366 
	C243.392883,86.197830 244.638031,86.728012 245.082291,89.041000 
z"/>
<path fill="#D7D7D7" opacity="1.000000" stroke="none" 
	d="
M300.577393,90.831100 
	C300.993317,88.720482 301.929840,88.048080 303.274750,89.464020 
	C304.184784,90.422134 303.890778,91.827339 302.932007,92.546318 
	C301.579498,93.560570 300.914185,92.525993 300.577393,90.831100 
z"/>
<path fill="#E2E2E2" opacity="1.000000" stroke="none" 
	d="
M138.915192,88.802704 
	C141.333557,89.229431 141.174652,90.660355 140.619095,92.080139 
	C140.295029,92.908272 139.218170,93.286041 138.639481,92.736908 
	C137.475891,91.632736 137.508636,90.218460 138.915192,88.802704 
z"/>
<path fill="#D9F1D6" opacity="1.000000" stroke="none" 
	d="
M46.742397,78.751717 
	C49.092693,79.694923 49.566116,80.954956 47.723537,82.443344 
	C46.677208,83.288551 45.378410,83.005531 44.655186,81.985703 
	C43.198811,79.932060 44.394787,79.046722 46.742397,78.751717 
z"/>
</svg>