<svg version="1.1" id="Layer_1" xmlns="http://www.w3.org/2000/svg" xmlns:xlink="http://www.w3.org/1999/xlink" x="0px" y="0px"
	 width="100%" viewBox="0 0 859 122" enable-background="new 0 0 859 122" xml:space="preserve">
<path fill="#FDFEFD" opacity="1.000000" stroke="none" 
	d="
M643.000000,123.000000 
	C428.666656,123.000000 214.833328,123.000000 1.000000,123.000000 
	C1.000000,82.333336 1.000000,41.666668 1.000000,1.000000 
	C287.333344,1.000000 573.666687,1.000000 860.000000,1.000000 
	C860.000000,41.666668 860.000000,82.333336 860.000000,123.000000 
	C787.833313,123.000000 715.666687,123.000000 643.000000,123.000000 
M674.145386,52.690815 
	C675.279175,44.118641 676.615051,35.566845 677.482117,26.967779 
	C678.163086,20.214012 674.981506,16.525982 668.190796,16.028900 
	C665.109619,15.803357 661.947021,16.430241 658.843933,16.841156 
	C655.999695,17.217789 654.718750,18.895998 654.457703,21.873466 
	C653.804016,29.329182 652.891052,36.763748 651.994080,44.196178 
	C650.706421,54.866547 649.340637,65.527481 648.008179,76.192444 
	C644.120972,64.766136 640.920349,53.431763 638.075989,42.008667 
	C636.951904,37.494122 634.214844,34.721066 630.001038,34.344410 
	C625.291199,33.923416 620.435852,34.387978 615.734070,35.080048 
	C614.351257,35.283588 612.636780,37.381474 612.178345,38.936649 
	C610.819641,43.545887 610.074341,48.332165 608.974060,53.022217 
	C607.201782,60.576672 605.337341,68.109512 603.511841,75.651482 
	C602.465942,74.924957 602.225098,74.334488 602.132385,73.721619 
	C599.770020,58.102104 597.363281,42.488876 595.109314,26.853645 
	C594.422058,22.086098 592.893555,18.016747 587.869080,16.541885 
	C581.944946,14.802940 576.254456,15.660270 571.368713,19.500847 
	C570.450012,20.223017 570.284485,22.466671 570.463806,23.922974 
	C571.174683,29.697002 571.863220,35.501987 573.100952,41.177547 
	C576.496460,56.748440 580.135681,72.266609 583.747070,87.789688 
	C584.663757,91.730080 586.830566,94.713104 590.867249,96.103806 
	C598.190674,98.626801 605.621399,99.128082 612.795105,96.127731 
	C614.982239,95.212967 617.265808,92.639610 617.950317,90.359154 
	C620.471802,81.958702 622.341125,73.362503 624.741943,63.686321 
	C627.115784,72.311462 629.479797,79.744720 631.154541,87.330162 
	C632.655884,94.130447 636.931641,97.392838 643.330627,97.682205 
	C648.418030,97.912262 653.596436,97.343552 658.655212,96.594208 
	C662.489563,96.026215 665.149597,93.704399 666.041687,89.532066 
	C668.610413,77.518333 671.357788,65.542801 674.145386,52.690815 
M27.142710,74.518715 
	C27.458639,64.558960 27.774570,54.599213 28.090502,44.639462 
	C31.939583,54.046951 34.953072,63.495087 38.011208,72.928749 
	C39.927277,78.839394 42.741257,80.483170 50.924713,80.221176 
	C56.831955,80.032051 61.208851,79.570274 63.000374,72.547821 
	C65.385437,63.198803 68.539894,54.046070 71.363831,44.809017 
	C72.598953,59.596142 73.257034,74.225060 73.701172,88.860474 
	C73.860748,94.119171 76.550484,96.991455 81.423111,97.613777 
	C84.842308,98.050468 88.395241,97.884422 91.842720,97.535599 
	C95.614532,97.153961 97.424118,95.329185 96.975281,90.906197 
	C94.808197,69.550903 93.031410,48.156315 91.027153,26.784010 
	C90.397270,20.067305 87.872955,17.171007 81.207069,16.277514 
	C77.132561,15.731365 72.907112,15.999898 68.775322,16.281799 
	C64.803360,16.552799 62.310387,18.605270 61.111862,22.771103 
	C57.830036,34.178085 54.149868,45.470467 50.403687,57.528351 
	C49.736588,55.804306 49.283775,54.774166 48.934731,53.709991 
	C45.933926,44.561043 42.971443,35.399494 39.956314,26.255295 
	C38.345570,21.370270 35.415234,17.420532 30.119513,16.706289 
	C25.413551,16.071585 20.461195,15.818214 15.810246,16.577145 
	C9.616989,17.587746 7.852055,20.106379 7.465464,26.393171 
	C6.300684,45.334988 5.221760,64.282303 4.177539,83.231232 
	C3.473244,96.011726 6.395018,98.814560 19.299870,97.948982 
	C20.456247,97.871422 21.596216,97.561005 22.752577,97.469139 
	C25.541986,97.247543 26.784992,95.934860 26.764757,92.990768 
	C26.724720,87.165962 26.985373,81.339096 27.142710,74.518715 
M439.992432,96.741356 
	C441.222992,95.488243 443.220581,94.416794 443.566956,92.954269 
	C447.583923,75.994339 451.697266,59.042507 455.019257,41.939777 
	C456.398346,34.840027 452.724396,31.389416 445.445526,31.185795 
	C442.996948,31.117300 440.493469,31.673685 438.075378,32.214249 
	C435.435455,32.804398 434.127258,34.246384 433.804382,37.371262 
	C432.448212,50.497307 430.655334,63.578239 429.022369,76.675690 
	C425.357056,65.972878 422.432861,55.273838 419.854889,44.492020 
	C418.626709,39.355526 415.473572,36.655266 410.558533,36.253902 
	C407.140839,35.974812 403.620392,36.421917 400.196045,36.902447 
	C396.540680,37.415390 394.753479,39.627193 393.914917,43.450150 
	C391.467499,54.607658 388.521667,65.655838 385.771240,76.746880 
	C383.314545,64.902031 381.609192,53.093216 380.029602,41.267597 
	C379.409027,36.621197 377.753326,33.005821 372.751923,31.699480 
	C367.148895,30.235987 362.191101,31.552212 357.800934,35.058559 
	C357.142456,35.584476 356.927185,37.227608 357.148468,38.209286 
	C361.091919,55.703857 364.923920,73.230156 369.381958,90.595070 
	C370.054993,93.216743 373.490204,96.509987 376.093567,96.970116 
	C381.640778,97.950562 387.534576,97.716080 393.170441,97.028954 
	C395.046967,96.800171 397.396301,93.948593 398.110840,91.819855 
	C401.150696,82.763878 403.658447,73.529297 406.663177,63.332790 
	C409.291534,72.003662 411.571869,79.760384 413.998169,87.471169 
	C416.984772,96.962486 420.527191,99.370308 430.409668,98.532776 
	C433.372284,98.281708 436.291107,97.513336 439.992432,96.741356 
M233.439270,99.052994 
	C234.937057,99.015167 236.443161,99.065941 237.931335,98.925896 
	C254.075729,97.406616 267.617584,91.226006 273.482239,75.154274 
	C276.132507,67.891388 276.945099,59.493610 276.597168,51.699753 
	C275.918518,36.499611 268.937103,24.440752 254.256866,18.518208 
	C239.023483,12.372506 223.320084,13.187634 207.711105,17.324554 
	C203.800125,18.361099 201.814133,20.967806 201.850296,25.415854 
	C202.011414,45.227043 201.897522,65.040329 201.933029,84.852768 
	C201.944336,91.161392 203.730988,94.443161 209.868225,95.867798 
	C217.251678,97.581718 224.922501,98.057739 233.439270,99.052994 
M134.088287,54.345325 
	C132.853775,50.033531 131.665634,45.707809 130.375580,41.412697 
	C127.234711,30.955435 117.678810,27.483057 108.559601,33.689064 
	C107.382507,34.490124 106.359825,37.035439 106.732872,38.359318 
	C110.019249,50.022156 113.265785,61.722504 117.289764,73.141945 
	C119.956841,80.710716 122.564796,88.675667 131.064362,93.505180 
	C126.615028,97.680267 122.692986,101.498055 118.619171,105.146362 
	C114.131271,109.165512 113.869118,111.654137 117.805473,116.265236 
	C120.897507,119.887276 124.968399,120.814919 129.510483,120.512939 
	C138.370560,119.923874 143.391556,113.877159 147.842438,107.321625 
	C157.543335,93.033562 164.243393,77.286942 169.106613,60.804367 
	C171.114441,53.999352 172.455917,46.909023 173.216019,39.853180 
	C173.803284,34.401638 170.457260,31.558416 164.655045,31.015505 
	C156.300217,30.233746 152.480820,32.366673 151.144531,38.019077 
	C148.507919,49.171753 145.661682,60.275307 142.836670,71.382530 
	C142.434402,72.964096 141.666290,74.452621 140.682312,76.969460 
	C138.306595,68.831192 136.305634,61.976665 134.088287,54.345325 
M857.019897,72.493996 
	C857.008362,65.999352 857.160706,59.499264 856.945129,53.011398 
	C856.654907,44.274376 852.631165,37.602276 844.575256,34.057949 
	C831.767517,28.422976 818.577637,29.035700 805.596497,33.308586 
	C799.399536,35.348396 797.556335,41.321781 800.396667,47.173885 
	C801.685486,49.829342 803.147888,51.210354 806.594055,49.920494 
	C813.852478,47.203850 821.412720,46.109753 829.126587,47.996006 
	C832.637146,48.854454 835.083435,50.694866 834.911804,55.142727 
	C832.459595,55.449730 830.183167,55.732052 827.907349,56.020180 
	C822.463318,56.709431 816.956787,57.087257 811.589111,58.159630 
	C801.347839,60.205708 796.006226,66.099464 795.205811,75.542107 
	C794.386780,85.204590 799.190186,93.017471 808.877625,96.315422 
	C821.753845,100.698914 834.762390,100.311485 847.467163,95.425919 
	C853.887573,92.956963 858.056152,88.654022 857.069092,80.977852 
	C856.753113,78.520508 857.019775,75.988251 857.019897,72.493996 
M742.923157,92.417366 
	C746.180481,90.073898 747.337158,86.899628 747.268677,82.911324 
	C747.108643,73.586800 747.307312,64.256546 747.190735,54.930737 
	C747.035583,42.514908 741.214600,35.171383 729.157166,31.925062 
	C719.613831,29.355640 710.020325,29.650625 700.502869,31.886776 
	C697.666443,32.553196 694.763062,33.754906 692.402405,35.432037 
	C688.925049,37.902431 688.753540,43.266705 690.907715,47.754013 
	C693.057983,52.232864 695.924255,49.466869 698.814819,49.193520 
	C705.689636,48.543400 712.620300,47.981407 719.506836,48.169792 
	C722.943054,48.263790 725.526611,50.690464 724.952332,55.215687 
	C722.473206,55.502396 720.179565,55.713642 717.902649,56.041412 
	C711.822021,56.916756 705.619934,57.341766 699.701782,58.862537 
	C690.345337,61.266819 686.185913,66.700760 685.522095,75.823006 
	C684.873352,84.739288 688.755981,92.289497 697.112244,95.447746 
	C712.414185,101.231110 727.673706,100.981720 742.923157,92.417366 
M322.197205,98.944847 
	C328.636200,96.984200 335.380493,95.657249 341.373077,92.770042 
	C343.994232,91.507195 346.416901,87.139046 346.614349,84.033813 
	C347.257324,73.921547 347.031616,63.735928 346.755280,53.589020 
	C346.532043,45.393440 343.132172,38.589218 335.499817,34.931942 
	C322.334991,28.623610 308.692291,29.180811 295.233032,33.770500 
	C289.273590,35.802711 287.580414,41.631950 290.320129,47.314262 
	C291.584045,49.935757 292.964935,50.889591 296.481781,50.194050 
	C303.544830,48.797146 310.847015,48.255276 318.063629,48.132862 
	C321.878845,48.068146 324.842712,50.422501 324.760773,55.428757 
	C322.742310,55.642731 320.950195,55.777233 319.175049,56.030766 
	C312.437286,56.993076 305.607178,57.570755 298.997955,59.098499 
	C292.295380,60.647827 287.489746,64.781731 285.847656,71.936211 
	C283.167389,83.613976 288.302368,93.525017 300.080811,96.693710 
	C306.855438,98.516258 314.182404,98.285706 322.197205,98.944847 
M508.352295,32.910957 
	C496.866241,29.430676 485.325684,29.640230 473.951202,33.097729 
	C466.879730,35.247223 464.592651,41.410492 467.767365,47.675339 
	C469.085022,50.275612 470.509766,50.747593 473.629120,50.188744 
	C480.731781,48.916275 488.005890,48.247692 495.224335,48.119125 
	C499.006836,48.051754 502.095825,50.308620 501.976807,55.403545 
	C500.002991,55.626553 498.228271,55.781990 496.467377,56.034008 
	C489.728607,56.998440 482.865875,57.475689 476.289856,59.105110 
	C467.486481,61.286434 463.425049,66.646042 462.567535,75.352928 
	C461.703613,84.125267 465.356689,91.273308 473.206879,95.022606 
	C476.602295,96.644272 480.364471,97.867943 484.082367,98.374306 
	C494.742249,99.826149 505.357758,99.658447 515.398315,95.039833 
	C521.123535,92.406265 524.562073,88.505638 524.128418,81.471840 
	C523.606934,73.012115 523.869080,64.493027 524.038147,56.004543 
	C524.259155,44.908928 519.515991,37.204094 508.352295,32.910957 
M761.607422,28.500391 
	C761.607422,31.331673 761.606995,34.162956 761.607422,36.994236 
	C761.609863,53.648891 761.558838,70.303810 761.641235,86.958069 
	C761.674744,93.716537 763.742493,97.077293 769.000061,97.602882 
	C773.959351,98.098633 779.030396,97.477264 784.123718,97.345467 
	C784.123718,70.406647 784.169128,44.599075 784.089233,18.791897 
	C784.071106,12.929349 781.406555,9.658369 776.079956,9.205345 
	C771.390625,8.806517 766.640503,9.121931 761.607361,9.121931 
	C761.607361,16.223831 761.607361,21.862385 761.607422,28.500391 
M550.124390,32.176704 
	C546.218140,32.498325 542.311890,32.819946 538.142700,33.163219 
	C538.142700,52.198109 538.054077,70.622444 538.204529,89.044830 
	C538.242615,93.699074 540.825378,97.238907 545.619141,97.636070 
	C550.592896,98.048149 555.648804,97.469383 560.845459,97.318832 
	C560.845459,78.787727 560.882446,61.346313 560.828735,43.905174 
	C560.804382,35.993748 558.826843,33.749813 550.124390,32.176704 
M543.039673,4.132336 
	C537.447083,8.426535 535.715027,13.641617 538.017395,19.254059 
	C540.084656,24.293364 545.010803,27.009134 550.940002,26.378220 
	C556.762268,25.758684 560.761597,22.037901 561.700256,16.367323 
	C563.305298,6.670946 554.500122,0.508871 543.039673,4.132336 
z"/>
<path fill="#15A804" opacity="1.000000" stroke="none" 
	d="
M674.090149,53.121536 
	C671.357788,65.542801 668.610413,77.518333 666.041687,89.532066 
	C665.149597,93.704399 662.489563,96.026215 658.655212,96.594208 
	C653.596436,97.343552 648.418030,97.912262 643.330627,97.682205 
	C636.931641,97.392838 632.655884,94.130447 631.154541,87.330162 
	C629.479797,79.744720 627.115784,72.311462 624.741943,63.686321 
	C622.341125,73.362503 620.471802,81.958702 617.950317,90.359154 
	C617.265808,92.639610 614.982239,95.212967 612.795105,96.127731 
	C605.621399,99.128082 598.190674,98.626801 590.867249,96.103806 
	C586.830566,94.713104 584.663757,91.730080 583.747070,87.789688 
	C580.135681,72.266609 576.496460,56.748440 573.100952,41.177547 
	C571.863220,35.501987 571.174683,29.697002 570.463806,23.922974 
	C570.284485,22.466671 570.450012,20.223017 571.368713,19.500847 
	C576.254456,15.660270 581.944946,14.802940 587.869080,16.541885 
	C592.893555,18.016747 594.422058,22.086098 595.109314,26.853645 
	C597.363281,42.488876 599.770020,58.102104 602.132385,73.721619 
	C602.225098,74.334488 602.465942,74.924957 603.511841,75.651482 
	C605.337341,68.109512 607.201782,60.576672 608.974060,53.022217 
	C610.074341,48.332165 610.819641,43.545887 612.178345,38.936649 
	C612.636780,37.381474 614.351257,35.283588 615.734070,35.080048 
	C620.435852,34.387978 625.291199,33.923416 630.001038,34.344410 
	C634.214844,34.721066 636.951904,37.494122 638.075989,42.008667 
	C640.920349,53.431763 644.120972,64.766136 648.008179,76.192444 
	C649.340637,65.527481 650.706421,54.866547 651.994080,44.196178 
	C652.891052,36.763748 653.804016,29.329182 654.457703,21.873466 
	C654.718750,18.895998 655.999695,17.217789 658.843933,16.841156 
	C661.947021,16.430241 665.109619,15.803357 668.190796,16.028900 
	C674.981506,16.525982 678.163086,20.214012 677.482117,26.967779 
	C676.615051,35.566845 675.279175,44.118641 674.090149,53.121536 
z"/>
<path fill="#15A804" opacity="1.000000" stroke="none" 
	d="
M27.132210,75.015900 
	C26.985373,81.339096 26.724720,87.165962 26.764757,92.990768 
	C26.784992,95.934860 25.541986,97.247543 22.752577,97.469139 
	C21.596216,97.561005 20.456247,97.871422 19.299870,97.948982 
	C6.395018,98.814560 3.473244,96.011726 4.177539,83.231232 
	C5.221760,64.282303 6.300684,45.334988 7.465464,26.393171 
	C7.852055,20.106379 9.616989,17.587746 15.810246,16.577145 
	C20.461195,15.818214 25.413551,16.071585 30.119513,16.706289 
	C35.415234,17.420532 38.345570,21.370270 39.956314,26.255295 
	C42.971443,35.399494 45.933926,44.561043 48.934731,53.709991 
	C49.283775,54.774166 49.736588,55.804306 50.403687,57.528351 
	C54.149868,45.470467 57.830036,34.178085 61.111862,22.771103 
	C62.310387,18.605270 64.803360,16.552799 68.775322,16.281799 
	C72.907112,15.999898 77.132561,15.731365 81.207069,16.277514 
	C87.872955,17.171007 90.397270,20.067305 91.027153,26.784010 
	C93.031410,48.156315 94.808197,69.550903 96.975281,90.906197 
	C97.424118,95.329185 95.614532,97.153961 91.842720,97.535599 
	C88.395241,97.884422 84.842308,98.050468 81.423111,97.613777 
	C76.550484,96.991455 73.860748,94.119171 73.701172,88.860474 
	C73.257034,74.225060 72.598953,59.596142 71.363831,44.809017 
	C68.539894,54.046070 65.385437,63.198803 63.000374,72.547821 
	C61.208851,79.570274 56.831955,80.032051 50.924713,80.221176 
	C42.741257,80.483170 39.927277,78.839394 38.011208,72.928749 
	C34.953072,63.495087 31.939583,54.046951 28.090502,44.639462 
	C27.774570,54.599213 27.458639,64.558960 27.132210,75.015900 
z"/>
<path fill="#15A805" opacity="1.000000" stroke="none" 
	d="
M439.611206,96.861656 
	C436.291107,97.513336 433.372284,98.281708 430.409668,98.532776 
	C420.527191,99.370308 416.984772,96.962486 413.998169,87.471169 
	C411.571869,79.760384 409.291534,72.003662 406.663177,63.332790 
	C403.658447,73.529297 401.150696,82.763878 398.110840,91.819855 
	C397.396301,93.948593 395.046967,96.800171 393.170441,97.028954 
	C387.534576,97.716080 381.640778,97.950562 376.093567,96.970116 
	C373.490204,96.509987 370.054993,93.216743 369.381958,90.595070 
	C364.923920,73.230156 361.091919,55.703857 357.148468,38.209286 
	C356.927185,37.227608 357.142456,35.584476 357.800934,35.058559 
	C362.191101,31.552212 367.148895,30.235987 372.751923,31.699480 
	C377.753326,33.005821 379.409027,36.621197 380.029602,41.267597 
	C381.609192,53.093216 383.314545,64.902031 385.771240,76.746880 
	C388.521667,65.655838 391.467499,54.607658 393.914917,43.450150 
	C394.753479,39.627193 396.540680,37.415390 400.196045,36.902447 
	C403.620392,36.421917 407.140839,35.974812 410.558533,36.253902 
	C415.473572,36.655266 418.626709,39.355526 419.854889,44.492020 
	C422.432861,55.273838 425.357056,65.972878 429.022369,76.675690 
	C430.655334,63.578239 432.448212,50.497307 433.804382,37.371262 
	C434.127258,34.246384 435.435455,32.804398 438.075378,32.214249 
	C440.493469,31.673685 442.996948,31.117300 445.445526,31.185795 
	C452.724396,31.389416 456.398346,34.840027 455.019257,41.939777 
	C451.697266,59.042507 447.583923,75.994339 443.566956,92.954269 
	C443.220581,94.416794 441.222992,95.488243 439.611206,96.861656 
z"/>
<path fill="#14A803" opacity="1.000000" stroke="none" 
	d="
M232.954086,99.061340 
	C224.922501,98.057739 217.251678,97.581718 209.868225,95.867798 
	C203.730988,94.443161 201.944336,91.161392 201.933029,84.852768 
	C201.897522,65.040329 202.011414,45.227043 201.850296,25.415854 
	C201.814133,20.967806 203.800125,18.361099 207.711105,17.324554 
	C223.320084,13.187634 239.023483,12.372506 254.256866,18.518208 
	C268.937103,24.440752 275.918518,36.499611 276.597168,51.699753 
	C276.945099,59.493610 276.132507,67.891388 273.482239,75.154274 
	C267.617584,91.226006 254.075729,97.406616 237.931335,98.925896 
	C236.443161,99.065941 234.937057,99.015167 232.954086,99.061340 
M243.450623,35.851852 
	C237.650009,32.433739 231.508209,32.581253 225.370941,33.629337 
	C225.370941,49.341412 225.370941,64.571129 225.370941,79.928429 
	C228.074936,80.055984 230.395813,80.240585 232.718109,80.260437 
	C238.808380,80.312508 244.154419,78.624260 248.281235,73.793343 
	C255.076736,65.838409 255.487961,42.874271 243.450623,35.851852 
z"/>
<path fill="#15A804" opacity="1.000000" stroke="none" 
	d="
M134.196472,54.733730 
	C136.305634,61.976665 138.306595,68.831192 140.682312,76.969460 
	C141.666290,74.452621 142.434402,72.964096 142.836670,71.382530 
	C145.661682,60.275307 148.507919,49.171753 151.144531,38.019077 
	C152.480820,32.366673 156.300217,30.233746 164.655045,31.015505 
	C170.457260,31.558416 173.803284,34.401638 173.216019,39.853180 
	C172.455917,46.909023 171.114441,53.999352 169.106613,60.804367 
	C164.243393,77.286942 157.543335,93.033562 147.842438,107.321625 
	C143.391556,113.877159 138.370560,119.923874 129.510483,120.512939 
	C124.968399,120.814919 120.897507,119.887276 117.805473,116.265236 
	C113.869118,111.654137 114.131271,109.165512 118.619171,105.146362 
	C122.692986,101.498055 126.615028,97.680267 131.064362,93.505180 
	C122.564796,88.675667 119.956841,80.710716 117.289764,73.141945 
	C113.265785,61.722504 110.019249,50.022156 106.732872,38.359318 
	C106.359825,37.035439 107.382507,34.490124 108.559601,33.689064 
	C117.678810,27.483057 127.234711,30.955435 130.375580,41.412697 
	C131.665634,45.707809 132.853775,50.033531 134.196472,54.733730 
z"/>
<path fill="#15A804" opacity="1.000000" stroke="none" 
	d="
M857.019897,72.992134 
	C857.019775,75.988251 856.753113,78.520508 857.069092,80.977852 
	C858.056152,88.654022 853.887573,92.956963 847.467163,95.425919 
	C834.762390,100.311485 821.753845,100.698914 808.877625,96.315422 
	C799.190186,93.017471 794.386780,85.204590 795.205811,75.542107 
	C796.006226,66.099464 801.347839,60.205708 811.589111,58.159630 
	C816.956787,57.087257 822.463318,56.709431 827.907349,56.020180 
	C830.183167,55.732052 832.459595,55.449730 834.911804,55.142727 
	C835.083435,50.694866 832.637146,48.854454 829.126587,47.996006 
	C821.412720,46.109753 813.852478,47.203850 806.594055,49.920494 
	C803.147888,51.210354 801.685486,49.829342 800.396667,47.173885 
	C797.556335,41.321781 799.399536,35.348396 805.596497,33.308586 
	C818.577637,29.035700 831.767517,28.422976 844.575256,34.057949 
	C852.631165,37.602276 856.654907,44.274376 856.945129,53.011398 
	C857.160706,59.499264 857.008362,65.999352 857.019897,72.992134 
M825.690674,82.628517 
	C836.168701,81.811371 836.475830,81.393021 834.484314,70.076302 
	C829.981140,70.712967 825.362793,71.012024 820.973145,72.174477 
	C819.391724,72.593262 817.241760,75.176331 817.356567,76.611282 
	C817.504150,78.457108 819.464966,80.367241 821.049438,81.803131 
	C821.878601,82.554558 823.573303,82.350998 825.690674,82.628517 
z"/>
<path fill="#15A804" opacity="1.000000" stroke="none" 
	d="
M742.628296,92.645615 
	C727.673706,100.981720 712.414185,101.231110 697.112244,95.447746 
	C688.755981,92.289497 684.873352,84.739288 685.522095,75.823006 
	C686.185913,66.700760 690.345337,61.266819 699.701782,58.862537 
	C705.619934,57.341766 711.822021,56.916756 717.902649,56.041412 
	C720.179565,55.713642 722.473206,55.502396 724.952332,55.215687 
	C725.526611,50.690464 722.943054,48.263790 719.506836,48.169792 
	C712.620300,47.981407 705.689636,48.543400 698.814819,49.193520 
	C695.924255,49.466869 693.057983,52.232864 690.907715,47.754013 
	C688.753540,43.266705 688.925049,37.902431 692.402405,35.432037 
	C694.763062,33.754906 697.666443,32.553196 700.502869,31.886776 
	C710.020325,29.650625 719.613831,29.355640 729.157166,31.925062 
	C741.214600,35.171383 747.035583,42.514908 747.190735,54.930737 
	C747.307312,64.256546 747.108643,73.586800 747.268677,82.911324 
	C747.337158,86.899628 746.180481,90.073898 742.628296,92.645615 
M725.387390,73.863708 
	C725.209412,72.672699 725.031433,71.481682 724.811218,70.007591 
	C719.923340,70.721504 715.430786,70.968246 711.181519,72.115746 
	C707.092346,73.219978 705.929443,77.557144 708.837158,80.217216 
	C713.037659,84.059891 718.214417,82.694519 722.997803,81.743767 
	C727.189087,80.910706 724.745178,77.137489 725.387390,73.863708 
z"/>
<path fill="#15A804" opacity="1.000000" stroke="none" 
	d="
M321.728973,98.962097 
	C314.182404,98.285706 306.855438,98.516258 300.080811,96.693710 
	C288.302368,93.525017 283.167389,83.613976 285.847656,71.936211 
	C287.489746,64.781731 292.295380,60.647827 298.997955,59.098499 
	C305.607178,57.570755 312.437286,56.993076 319.175049,56.030766 
	C320.950195,55.777233 322.742310,55.642731 324.760773,55.428757 
	C324.842712,50.422501 321.878845,48.068146 318.063629,48.132862 
	C310.847015,48.255276 303.544830,48.797146 296.481781,50.194050 
	C292.964935,50.889591 291.584045,49.935757 290.320129,47.314262 
	C287.580414,41.631950 289.273590,35.802711 295.233032,33.770500 
	C308.692291,29.180811 322.334991,28.623610 335.499817,34.931942 
	C343.132172,38.589218 346.532043,45.393440 346.755280,53.589020 
	C347.031616,63.735928 347.257324,73.921547 346.614349,84.033813 
	C346.416901,87.139046 343.994232,91.507195 341.373077,92.770042 
	C335.380493,95.657249 328.636200,96.984200 321.728973,98.962097 
M308.260315,80.165016 
	C312.972382,84.105972 318.230164,82.623123 323.366516,81.509514 
	C324.065948,81.357864 324.861664,79.857742 324.931396,78.930710 
	C325.138580,76.176163 325.005585,73.396027 325.005585,70.436691 
	C321.049316,70.713989 317.614594,70.926445 314.186371,71.215790 
	C313.375488,71.284233 312.580688,71.591560 311.788239,71.822395 
	C307.774902,72.991463 305.757324,75.197174 308.260315,80.165016 
z"/>
<path fill="#15A804" opacity="1.000000" stroke="none" 
	d="
M508.732788,33.011024 
	C519.515991,37.204094 524.259155,44.908928 524.038147,56.004543 
	C523.869080,64.493027 523.606934,73.012115 524.128418,81.471840 
	C524.562073,88.505638 521.123535,92.406265 515.398315,95.039833 
	C505.357758,99.658447 494.742249,99.826149 484.082367,98.374306 
	C480.364471,97.867943 476.602295,96.644272 473.206879,95.022606 
	C465.356689,91.273308 461.703613,84.125267 462.567535,75.352928 
	C463.425049,66.646042 467.486481,61.286434 476.289856,59.105110 
	C482.865875,57.475689 489.728607,56.998440 496.467377,56.034008 
	C498.228271,55.781990 500.002991,55.626553 501.976807,55.403545 
	C502.095825,50.308620 499.006836,48.051754 495.224335,48.119125 
	C488.005890,48.247692 480.731781,48.916275 473.629120,50.188744 
	C470.509766,50.747593 469.085022,50.275612 467.767365,47.675339 
	C464.592651,41.410492 466.879730,35.247223 473.951202,33.097729 
	C485.325684,29.640230 496.866241,29.430676 508.732788,33.011024 
M484.710144,78.749763 
	C487.871857,82.689583 496.453003,84.870132 500.302765,81.336685 
	C502.491119,79.328148 501.996490,74.396454 502.845490,70.095245 
	C497.219238,70.812119 492.929535,71.152542 488.730286,71.962044 
	C485.634125,72.558907 483.721222,74.513367 484.710144,78.749763 
z"/>
<path fill="#13A702" opacity="1.000000" stroke="none" 
	d="
M761.607422,28.000664 
	C761.607361,21.862385 761.607361,16.223831 761.607361,9.121931 
	C766.640503,9.121931 771.390625,8.806517 776.079956,9.205345 
	C781.406555,9.658369 784.071106,12.929349 784.089233,18.791897 
	C784.169128,44.599075 784.123718,70.406647 784.123718,97.345467 
	C779.030396,97.477264 773.959351,98.098633 769.000061,97.602882 
	C763.742493,97.077293 761.674744,93.716537 761.641235,86.958069 
	C761.558838,70.303810 761.609863,53.648891 761.607422,36.994236 
	C761.606995,34.162956 761.607422,31.331673 761.607422,28.000664 
z"/>
<path fill="#17A906" opacity="1.000000" stroke="none" 
	d="
M550.553284,32.203655 
	C558.826843,33.749813 560.804382,35.993748 560.828735,43.905174 
	C560.882446,61.346313 560.845459,78.787727 560.845459,97.318832 
	C555.648804,97.469383 550.592896,98.048149 545.619141,97.636070 
	C540.825378,97.238907 538.242615,93.699074 538.204529,89.044830 
	C538.054077,70.622444 538.142700,52.198109 538.142700,33.163219 
	C542.311890,32.819946 546.218140,32.498325 550.553284,32.203655 
z"/>
<path fill="#17A907" opacity="1.000000" stroke="none" 
	d="
M543.414062,3.982304 
	C554.500122,0.508871 563.305298,6.670946 561.700256,16.367323 
	C560.761597,22.037901 556.762268,25.758684 550.940002,26.378220 
	C545.010803,27.009134 540.084656,24.293364 538.017395,19.254059 
	C535.715027,13.641617 537.447083,8.426535 543.414062,3.982304 
z"/>
<path fill="#FDFEFD" opacity="1.000000" stroke="none" 
	d="
M243.783112,36.026550 
	C255.487961,42.874271 255.076736,65.838409 248.281235,73.793343 
	C244.154419,78.624260 238.808380,80.312508 232.718109,80.260437 
	C230.395813,80.240585 228.074936,80.055984 225.370941,79.928429 
	C225.370941,64.571129 225.370941,49.341412 225.370941,33.629337 
	C231.508209,32.581253 237.650009,32.433739 243.783112,36.026550 
z"/>
<path fill="#F8FCF7" opacity="1.000000" stroke="none" 
	d="
M825.283875,82.603630 
	C823.573303,82.350998 821.878601,82.554558 821.049438,81.803131 
	C819.464966,80.367241 817.504150,78.457108 817.356567,76.611282 
	C817.241760,75.176331 819.391724,72.593262 820.973145,72.174477 
	C825.362793,71.012024 829.981140,70.712967 834.484314,70.076302 
	C836.475830,81.393021 836.168701,81.811371 825.283875,82.603630 
z"/>
<path fill="#F7FCF6" opacity="1.000000" stroke="none" 
	d="
M725.387390,74.289200 
	C724.745178,77.137489 727.189087,80.910706 722.997803,81.743767 
	C718.214417,82.694519 713.037659,84.059891 708.837158,80.217216 
	C705.929443,77.557144 707.092346,73.219978 711.181519,72.115746 
	C715.430786,70.968246 719.923340,70.721504 724.811218,70.007591 
	C725.031433,71.481682 725.209412,72.672699 725.387390,74.289200 
z"/>
<path fill="#F8FCF7" opacity="1.000000" stroke="none" 
	d="
M308.045593,79.835236 
	C305.757324,75.197174 307.774902,72.991463 311.788239,71.822395 
	C312.580688,71.591560 313.375488,71.284233 314.186371,71.215790 
	C317.614594,70.926445 321.049316,70.713989 325.005585,70.436691 
	C325.005585,73.396027 325.138580,76.176163 324.931396,78.930710 
	C324.861664,79.857742 324.065948,81.357864 323.366516,81.509514 
	C318.230164,82.623123 312.972382,84.105972 308.045593,79.835236 
z"/>
<path fill="#F7FCF7" opacity="1.000000" stroke="none" 
	d="
M484.560303,78.400940 
	C483.721222,74.513367 485.634125,72.558907 488.730286,71.962044 
	C492.929535,71.152542 497.219238,70.812119 502.845490,70.095245 
	C501.996490,74.396454 502.491119,79.328148 500.302765,81.336685 
	C496.453003,84.870132 487.871857,82.689583 484.560303,78.400940 
z"/>
</svg>