<svg xmlns="http://www.w3.org/2000/svg" xmlns:xlink="http://www.w3.org/1999/xlink" width="321" zoomAndPan="magnify" viewBox="0 0 240.75 141.750002" height="188" preserveAspectRatio="xMidYMid meet" version="1.0"><defs><g/></defs><g fill="#12a701" fill-opacity="1"><g transform="translate(18.071826, 78.508698)"><g><path d="M 15.4375 -4.75 C 15.164062 -4.519531 14.8125 -4.332031 14.375 -4.1875 C 13.9375 -4.050781 13.429688 -3.984375 12.859375 -3.984375 C 12.085938 -3.984375 11.453125 -4.078125 10.953125 -4.265625 C 10.453125 -4.460938 10.128906 -4.796875 9.984375 -5.265625 C 9.390625 -7.140625 8.898438 -8.65625 8.515625 -9.8125 C 8.128906 -10.96875 7.832031 -11.984375 7.625 -12.859375 L 7.46875 -12.859375 C 7.40625 -11.597656 7.359375 -10.453125 7.328125 -9.421875 C 7.296875 -8.390625 7.273438 -7.382812 7.265625 -6.40625 C 7.253906 -5.4375 7.226562 -4.453125 7.1875 -3.453125 C 7.15625 -2.453125 7.109375 -1.34375 7.046875 -0.125 C 6.773438 -0.0195312 6.414062 0.0664062 5.96875 0.140625 C 5.519531 0.210938 5.070312 0.25 4.625 0.25 C 3.6875 0.25 2.957031 0.101562 2.4375 -0.1875 C 1.914062 -0.488281 1.65625 -1.03125 1.65625 -1.8125 L 2.578125 -18.09375 C 2.753906 -18.363281 3.128906 -18.660156 3.703125 -18.984375 C 4.273438 -19.304688 5.082031 -19.46875 6.125 -19.46875 C 7.25 -19.46875 8.128906 -19.289062 8.765625 -18.9375 C 9.410156 -18.582031 9.878906 -18.015625 10.171875 -17.234375 C 10.367188 -16.722656 10.578125 -16.132812 10.796875 -15.46875 C 11.023438 -14.8125 11.25 -14.128906 11.46875 -13.421875 C 11.695312 -12.722656 11.914062 -12.03125 12.125 -11.34375 C 12.332031 -10.65625 12.523438 -10.03125 12.703125 -9.46875 L 12.859375 -9.46875 C 13.367188 -11.257812 13.878906 -12.988281 14.390625 -14.65625 C 14.898438 -16.332031 15.367188 -17.734375 15.796875 -18.859375 C 16.109375 -19.023438 16.515625 -19.164062 17.015625 -19.28125 C 17.515625 -19.40625 18.078125 -19.46875 18.703125 -19.46875 C 19.742188 -19.46875 20.59375 -19.3125 21.25 -19 C 21.90625 -18.6875 22.285156 -18.242188 22.390625 -17.671875 C 22.484375 -17.242188 22.578125 -16.585938 22.671875 -15.703125 C 22.765625 -14.828125 22.863281 -13.835938 22.96875 -12.734375 C 23.070312 -11.628906 23.175781 -10.457031 23.28125 -9.21875 C 23.394531 -7.988281 23.5 -6.800781 23.59375 -5.65625 C 23.6875 -4.519531 23.765625 -3.476562 23.828125 -2.53125 C 23.898438 -1.582031 23.945312 -0.851562 23.96875 -0.34375 C 23.601562 -0.132812 23.222656 0.015625 22.828125 0.109375 C 22.429688 0.203125 21.925781 0.25 21.3125 0.25 C 20.5 0.25 19.816406 0.113281 19.265625 -0.15625 C 18.710938 -0.4375 18.414062 -0.976562 18.375 -1.78125 C 18.25 -4.101562 18.171875 -6.1875 18.140625 -8.03125 C 18.109375 -9.882812 18.0625 -11.441406 18 -12.703125 L 17.828125 -12.703125 C 17.617188 -11.867188 17.3125 -10.820312 16.90625 -9.5625 C 16.5 -8.3125 16.007812 -6.707031 15.4375 -4.75 Z M 15.4375 -4.75 "/></g></g></g><g fill="#12a701" fill-opacity="1"><g transform="translate(43.501465, 78.508698)"><g><path d="M 4.078125 -3.953125 C 3.847656 -4.484375 3.597656 -5.078125 3.328125 -5.734375 C 3.066406 -6.398438 2.789062 -7.15625 2.5 -8 C 2.21875 -8.851562 1.921875 -9.828125 1.609375 -10.921875 C 1.304688 -12.023438 0.984375 -13.285156 0.640625 -14.703125 C 0.929688 -15.003906 1.328125 -15.265625 1.828125 -15.484375 C 2.328125 -15.710938 2.878906 -15.828125 3.484375 -15.828125 C 4.222656 -15.828125 4.835938 -15.671875 5.328125 -15.359375 C 5.816406 -15.054688 6.175781 -14.476562 6.40625 -13.625 L 8.9375 -4.84375 L 9.0625 -4.84375 C 9.3125 -5.570312 9.554688 -6.359375 9.796875 -7.203125 C 10.046875 -8.054688 10.285156 -8.9375 10.515625 -9.84375 C 10.753906 -10.75 10.972656 -11.648438 11.171875 -12.546875 C 11.378906 -13.453125 11.554688 -14.34375 11.703125 -15.21875 C 12.472656 -15.625 13.316406 -15.828125 14.234375 -15.828125 C 14.972656 -15.828125 15.585938 -15.664062 16.078125 -15.34375 C 16.566406 -15.03125 16.8125 -14.476562 16.8125 -13.6875 C 16.8125 -13.113281 16.738281 -12.445312 16.59375 -11.6875 C 16.445312 -10.9375 16.25 -10.132812 16 -9.28125 C 15.757812 -8.4375 15.472656 -7.5625 15.140625 -6.65625 C 14.804688 -5.75 14.457031 -4.859375 14.09375 -3.984375 C 13.738281 -3.117188 13.367188 -2.296875 12.984375 -1.515625 C 12.597656 -0.734375 12.226562 -0.0351562 11.875 0.578125 C 11.269531 1.617188 10.710938 2.46875 10.203125 3.125 C 9.691406 3.78125 9.203125 4.296875 8.734375 4.671875 C 8.273438 5.046875 7.8125 5.300781 7.34375 5.4375 C 6.875 5.570312 6.382812 5.640625 5.875 5.640625 C 4.976562 5.640625 4.253906 5.375 3.703125 4.84375 C 3.148438 4.3125 2.820312 3.625 2.71875 2.78125 C 3.394531 2.25 4.070312 1.65625 4.75 1 C 5.4375 0.351562 6.054688 -0.304688 6.609375 -0.984375 C 6.242188 -1.097656 5.851562 -1.347656 5.4375 -1.734375 C 5.019531 -2.128906 4.566406 -2.867188 4.078125 -3.953125 Z M 4.078125 -3.953125 "/></g></g></g><g fill="#12a701" fill-opacity="1"><g transform="translate(154.547178, 78.508698)"><g><path d="M 11 -14.609375 C 11.238281 -14.710938 11.609375 -14.832031 12.109375 -14.96875 C 12.609375 -15.113281 13.113281 -15.1875 13.625 -15.1875 C 14.519531 -15.1875 15.265625 -15.050781 15.859375 -14.78125 C 16.453125 -14.519531 16.8125 -14.132812 16.9375 -13.625 C 17.175781 -12.75 17.394531 -11.929688 17.59375 -11.171875 C 17.800781 -10.421875 18 -9.703125 18.1875 -9.015625 C 18.375 -8.328125 18.554688 -7.640625 18.734375 -6.953125 C 18.921875 -6.273438 19.097656 -5.5625 19.265625 -4.8125 L 19.4375 -4.8125 C 19.625 -6.113281 19.789062 -7.351562 19.9375 -8.53125 C 20.09375 -9.71875 20.234375 -10.878906 20.359375 -12.015625 C 20.484375 -13.148438 20.609375 -14.273438 20.734375 -15.390625 C 20.867188 -16.503906 21 -17.640625 21.125 -18.796875 C 21.90625 -19.242188 22.742188 -19.46875 23.640625 -19.46875 C 24.429688 -19.46875 25.113281 -19.296875 25.6875 -18.953125 C 26.257812 -18.609375 26.546875 -18.035156 26.546875 -17.234375 C 26.546875 -16.765625 26.5 -16.097656 26.40625 -15.234375 C 26.3125 -14.367188 26.179688 -13.40625 26.015625 -12.34375 C 25.859375 -11.28125 25.671875 -10.164062 25.453125 -9 C 25.242188 -7.832031 25.019531 -6.710938 24.78125 -5.640625 C 24.550781 -4.578125 24.3125 -3.613281 24.0625 -2.75 C 23.820312 -1.894531 23.597656 -1.234375 23.390625 -0.765625 C 23.066406 -0.460938 22.539062 -0.21875 21.8125 -0.03125 C 21.09375 0.15625 20.351562 0.25 19.59375 0.25 C 18.59375 0.25 17.742188 0.117188 17.046875 -0.140625 C 16.359375 -0.410156 15.941406 -0.789062 15.796875 -1.28125 C 15.515625 -2.125 15.210938 -3.128906 14.890625 -4.296875 C 14.578125 -5.472656 14.238281 -6.765625 13.875 -8.171875 C 13.582031 -6.785156 13.273438 -5.429688 12.953125 -4.109375 C 12.628906 -2.796875 12.34375 -1.679688 12.09375 -0.765625 C 11.769531 -0.460938 11.289062 -0.21875 10.65625 -0.03125 C 10.019531 0.15625 9.316406 0.25 8.546875 0.25 C 7.585938 0.25 6.71875 0.117188 5.9375 -0.140625 C 5.164062 -0.410156 4.664062 -0.789062 4.4375 -1.28125 C 4.238281 -1.65625 4.03125 -2.21875 3.8125 -2.96875 C 3.59375 -3.726562 3.363281 -4.59375 3.125 -5.5625 C 2.894531 -6.53125 2.65625 -7.578125 2.40625 -8.703125 C 2.164062 -9.835938 1.941406 -10.96875 1.734375 -12.09375 C 1.535156 -13.21875 1.347656 -14.316406 1.171875 -15.390625 C 1.003906 -16.460938 0.878906 -17.445312 0.796875 -18.34375 C 1.097656 -18.625 1.515625 -18.878906 2.046875 -19.109375 C 2.578125 -19.347656 3.148438 -19.46875 3.765625 -19.46875 C 4.578125 -19.46875 5.242188 -19.289062 5.765625 -18.9375 C 6.285156 -18.582031 6.609375 -17.992188 6.734375 -17.171875 C 7.078125 -14.992188 7.359375 -13.179688 7.578125 -11.734375 C 7.796875 -10.296875 7.972656 -9.113281 8.109375 -8.1875 C 8.253906 -7.257812 8.359375 -6.539062 8.421875 -6.03125 C 8.484375 -5.519531 8.546875 -5.113281 8.609375 -4.8125 L 8.78125 -4.8125 C 8.96875 -5.664062 9.144531 -6.453125 9.3125 -7.171875 C 9.488281 -7.898438 9.664062 -8.628906 9.84375 -9.359375 C 10.019531 -10.097656 10.203125 -10.882812 10.390625 -11.71875 C 10.585938 -12.5625 10.789062 -13.523438 11 -14.609375 Z M 11 -14.609375 "/></g></g></g><g fill="#12a701" fill-opacity="1"><g transform="translate(182.082661, 78.508698)"><g><path d="M 8.296875 -3.453125 C 8.660156 -3.453125 9.054688 -3.488281 9.484375 -3.5625 C 9.921875 -3.632812 10.25 -3.734375 10.46875 -3.859375 L 10.46875 -6.40625 L 8.171875 -6.21875 C 7.578125 -6.175781 7.085938 -6.046875 6.703125 -5.828125 C 6.316406 -5.617188 6.125 -5.300781 6.125 -4.875 C 6.125 -4.457031 6.285156 -4.113281 6.609375 -3.84375 C 6.941406 -3.582031 7.503906 -3.453125 8.296875 -3.453125 Z M 8.046875 -15.984375 C 9.191406 -15.984375 10.238281 -15.863281 11.1875 -15.625 C 12.132812 -15.394531 12.941406 -15.039062 13.609375 -14.5625 C 14.273438 -14.082031 14.789062 -13.472656 15.15625 -12.734375 C 15.519531 -12.003906 15.703125 -11.140625 15.703125 -10.140625 L 15.703125 -3 C 15.703125 -2.445312 15.546875 -1.992188 15.234375 -1.640625 C 14.921875 -1.285156 14.554688 -0.984375 14.140625 -0.734375 C 12.753906 0.0976562 10.804688 0.515625 8.296875 0.515625 C 7.171875 0.515625 6.15625 0.40625 5.25 0.1875 C 4.34375 -0.0195312 3.566406 -0.335938 2.921875 -0.765625 C 2.273438 -1.191406 1.773438 -1.734375 1.421875 -2.390625 C 1.066406 -3.046875 0.890625 -3.8125 0.890625 -4.6875 C 0.890625 -6.15625 1.328125 -7.28125 2.203125 -8.0625 C 3.078125 -8.851562 4.425781 -9.347656 6.25 -9.546875 L 10.4375 -9.984375 L 10.4375 -10.203125 C 10.4375 -10.828125 10.164062 -11.269531 9.625 -11.53125 C 9.082031 -11.800781 8.300781 -11.9375 7.28125 -11.9375 C 6.46875 -11.9375 5.675781 -11.847656 4.90625 -11.671875 C 4.144531 -11.503906 3.457031 -11.296875 2.84375 -11.046875 C 2.5625 -11.234375 2.320312 -11.519531 2.125 -11.90625 C 1.9375 -12.300781 1.84375 -12.710938 1.84375 -13.140625 C 1.84375 -13.691406 1.972656 -14.132812 2.234375 -14.46875 C 2.503906 -14.800781 2.921875 -15.082031 3.484375 -15.3125 C 4.097656 -15.550781 4.820312 -15.722656 5.65625 -15.828125 C 6.5 -15.929688 7.296875 -15.984375 8.046875 -15.984375 Z M 8.046875 -15.984375 "/></g></g></g><g fill="#12a701" fill-opacity="1"><g transform="translate(199.439907, 78.508698)"><g><path d="M 7.171875 -0.03125 C 6.941406 0.0078125 6.597656 0.0664062 6.140625 0.140625 C 5.679688 0.210938 5.21875 0.25 4.75 0.25 C 4.28125 0.25 3.859375 0.21875 3.484375 0.15625 C 3.117188 0.09375 2.804688 -0.03125 2.546875 -0.21875 C 2.296875 -0.414062 2.097656 -0.675781 1.953125 -1 C 1.816406 -1.332031 1.75 -1.765625 1.75 -2.296875 L 1.75 -20.796875 C 1.988281 -20.835938 2.335938 -20.894531 2.796875 -20.96875 C 3.253906 -21.050781 3.71875 -21.09375 4.1875 -21.09375 C 4.644531 -21.09375 5.0625 -21.0625 5.4375 -21 C 5.8125 -20.9375 6.125 -20.804688 6.375 -20.609375 C 6.632812 -20.421875 6.832031 -20.160156 6.96875 -19.828125 C 7.101562 -19.492188 7.171875 -19.0625 7.171875 -18.53125 Z M 7.171875 -0.03125 "/></g></g></g><g fill="#12a701" fill-opacity="1"><g transform="translate(208.373793, 78.508698)"><g><path d="M 8.296875 -3.453125 C 8.660156 -3.453125 9.054688 -3.488281 9.484375 -3.5625 C 9.921875 -3.632812 10.25 -3.734375 10.46875 -3.859375 L 10.46875 -6.40625 L 8.171875 -6.21875 C 7.578125 -6.175781 7.085938 -6.046875 6.703125 -5.828125 C 6.316406 -5.617188 6.125 -5.300781 6.125 -4.875 C 6.125 -4.457031 6.285156 -4.113281 6.609375 -3.84375 C 6.941406 -3.582031 7.503906 -3.453125 8.296875 -3.453125 Z M 8.046875 -15.984375 C 9.191406 -15.984375 10.238281 -15.863281 11.1875 -15.625 C 12.132812 -15.394531 12.941406 -15.039062 13.609375 -14.5625 C 14.273438 -14.082031 14.789062 -13.472656 15.15625 -12.734375 C 15.519531 -12.003906 15.703125 -11.140625 15.703125 -10.140625 L 15.703125 -3 C 15.703125 -2.445312 15.546875 -1.992188 15.234375 -1.640625 C 14.921875 -1.285156 14.554688 -0.984375 14.140625 -0.734375 C 12.753906 0.0976562 10.804688 0.515625 8.296875 0.515625 C 7.171875 0.515625 6.15625 0.40625 5.25 0.1875 C 4.34375 -0.0195312 3.566406 -0.335938 2.921875 -0.765625 C 2.273438 -1.191406 1.773438 -1.734375 1.421875 -2.390625 C 1.066406 -3.046875 0.890625 -3.8125 0.890625 -4.6875 C 0.890625 -6.15625 1.328125 -7.28125 2.203125 -8.0625 C 3.078125 -8.851562 4.425781 -9.347656 6.25 -9.546875 L 10.4375 -9.984375 L 10.4375 -10.203125 C 10.4375 -10.828125 10.164062 -11.269531 9.625 -11.53125 C 9.082031 -11.800781 8.300781 -11.9375 7.28125 -11.9375 C 6.46875 -11.9375 5.675781 -11.847656 4.90625 -11.671875 C 4.144531 -11.503906 3.457031 -11.296875 2.84375 -11.046875 C 2.5625 -11.234375 2.320312 -11.519531 2.125 -11.90625 C 1.9375 -12.300781 1.84375 -12.710938 1.84375 -13.140625 C 1.84375 -13.691406 1.972656 -14.132812 2.234375 -14.46875 C 2.503906 -14.800781 2.921875 -15.082031 3.484375 -15.3125 C 4.097656 -15.550781 4.820312 -15.722656 5.65625 -15.828125 C 6.5 -15.929688 7.296875 -15.984375 8.046875 -15.984375 Z M 8.046875 -15.984375 "/></g></g></g><g fill="#12a701" fill-opacity="1"><g transform="translate(65.050077, 78.521714)"><g><path d="M 7.59375 -4.125 C 7.820312 -4.082031 8.109375 -4.046875 8.453125 -4.015625 C 8.796875 -3.984375 9.113281 -3.96875 9.40625 -3.96875 C 10.125 -3.96875 10.785156 -4.070312 11.390625 -4.28125 C 11.992188 -4.5 12.515625 -4.828125 12.953125 -5.265625 C 13.390625 -5.710938 13.726562 -6.289062 13.96875 -7 C 14.207031 -7.71875 14.328125 -8.570312 14.328125 -9.5625 C 14.328125 -11.46875 13.878906 -12.898438 12.984375 -13.859375 C 12.097656 -14.828125 10.914062 -15.3125 9.4375 -15.3125 C 9.144531 -15.3125 8.84375 -15.300781 8.53125 -15.28125 C 8.226562 -15.257812 7.914062 -15.226562 7.59375 -15.1875 Z M 9.375 0.515625 C 9.007812 0.515625 8.59375 0.5 8.125 0.46875 C 7.664062 0.445312 7.1875 0.40625 6.6875 0.34375 C 6.1875 0.28125 5.6875 0.203125 5.1875 0.109375 C 4.695312 0.015625 4.238281 -0.113281 3.8125 -0.28125 C 2.644531 -0.726562 2.0625 -1.503906 2.0625 -2.609375 L 2.0625 -17.453125 C 2.0625 -17.890625 2.179688 -18.226562 2.421875 -18.46875 C 2.671875 -18.71875 3.007812 -18.914062 3.4375 -19.0625 C 4.34375 -19.363281 5.300781 -19.5625 6.3125 -19.65625 C 7.332031 -19.75 8.25 -19.796875 9.0625 -19.796875 C 10.707031 -19.796875 12.203125 -19.59375 13.546875 -19.1875 C 14.898438 -18.789062 16.054688 -18.171875 17.015625 -17.328125 C 17.984375 -16.492188 18.726562 -15.441406 19.25 -14.171875 C 19.78125 -12.898438 20.046875 -11.394531 20.046875 -9.65625 C 20.046875 -7.96875 19.789062 -6.492188 19.28125 -5.234375 C 18.78125 -3.972656 18.054688 -2.910156 17.109375 -2.046875 C 16.171875 -1.191406 15.046875 -0.550781 13.734375 -0.125 C 12.421875 0.300781 10.96875 0.515625 9.375 0.515625 Z M 9.375 0.515625 "/></g></g></g><g fill="#12a701" fill-opacity="1"><g transform="translate(86.212886, 78.521714)"><g><path d="M 8.265625 -3.4375 C 8.617188 -3.4375 9.015625 -3.472656 9.453125 -3.546875 C 9.890625 -3.617188 10.210938 -3.71875 10.421875 -3.84375 L 10.421875 -6.390625 L 8.140625 -6.203125 C 7.546875 -6.160156 7.054688 -6.03125 6.671875 -5.8125 C 6.296875 -5.601562 6.109375 -5.285156 6.109375 -4.859375 C 6.109375 -4.441406 6.269531 -4.097656 6.59375 -3.828125 C 6.925781 -3.566406 7.484375 -3.4375 8.265625 -3.4375 Z M 8.015625 -15.921875 C 9.148438 -15.921875 10.1875 -15.800781 11.125 -15.5625 C 12.070312 -15.332031 12.878906 -14.976562 13.546875 -14.5 C 14.222656 -14.03125 14.738281 -13.425781 15.09375 -12.6875 C 15.457031 -11.957031 15.640625 -11.097656 15.640625 -10.109375 L 15.640625 -2.984375 C 15.640625 -2.429688 15.484375 -1.976562 15.171875 -1.625 C 14.867188 -1.28125 14.503906 -0.984375 14.078125 -0.734375 C 12.703125 0.0976562 10.765625 0.515625 8.265625 0.515625 C 7.140625 0.515625 6.125 0.40625 5.21875 0.1875 C 4.320312 -0.0195312 3.550781 -0.332031 2.90625 -0.75 C 2.257812 -1.175781 1.757812 -1.71875 1.40625 -2.375 C 1.0625 -3.039062 0.890625 -3.804688 0.890625 -4.671875 C 0.890625 -6.128906 1.320312 -7.25 2.1875 -8.03125 C 3.0625 -8.820312 4.410156 -9.3125 6.234375 -9.5 L 10.390625 -9.953125 L 10.390625 -10.171875 C 10.390625 -10.785156 10.117188 -11.222656 9.578125 -11.484375 C 9.035156 -11.753906 8.257812 -11.890625 7.25 -11.890625 C 6.4375 -11.890625 5.648438 -11.800781 4.890625 -11.625 C 4.128906 -11.457031 3.441406 -11.25 2.828125 -11 C 2.554688 -11.1875 2.320312 -11.472656 2.125 -11.859375 C 1.9375 -12.253906 1.84375 -12.664062 1.84375 -13.09375 C 1.84375 -13.644531 1.972656 -14.082031 2.234375 -14.40625 C 2.503906 -14.738281 2.914062 -15.019531 3.46875 -15.25 C 4.082031 -15.488281 4.804688 -15.660156 5.640625 -15.765625 C 6.472656 -15.867188 7.265625 -15.921875 8.015625 -15.921875 Z M 8.015625 -15.921875 "/></g></g></g><g fill="#12a701" fill-opacity="1"><g transform="translate(103.499029, 78.521714)"><g><path d="M 10.453125 -0.484375 C 10.160156 -0.222656 9.757812 -0.015625 9.25 0.140625 C 8.738281 0.296875 8.132812 0.375 7.4375 0.375 C 6.570312 0.375 5.820312 0.253906 5.1875 0.015625 C 4.550781 -0.222656 4.125 -0.566406 3.90625 -1.015625 C 3.675781 -1.523438 3.40625 -2.328125 3.09375 -3.421875 C 2.789062 -4.523438 2.488281 -5.734375 2.1875 -7.046875 C 1.894531 -8.367188 1.613281 -9.707031 1.34375 -11.0625 C 1.082031 -12.414062 0.878906 -13.613281 0.734375 -14.65625 C 1.023438 -14.945312 1.421875 -15.203125 1.921875 -15.421875 C 2.421875 -15.648438 2.96875 -15.765625 3.5625 -15.765625 C 4.300781 -15.765625 4.910156 -15.597656 5.390625 -15.265625 C 5.867188 -14.941406 6.160156 -14.378906 6.265625 -13.578125 C 6.472656 -11.960938 6.648438 -10.628906 6.796875 -9.578125 C 6.953125 -8.535156 7.078125 -7.675781 7.171875 -7 C 7.265625 -6.332031 7.335938 -5.820312 7.390625 -5.46875 C 7.441406 -5.125 7.488281 -4.847656 7.53125 -4.640625 L 7.65625 -4.640625 C 7.71875 -4.984375 7.828125 -5.476562 7.984375 -6.125 C 8.148438 -6.769531 8.335938 -7.503906 8.546875 -8.328125 C 8.753906 -9.148438 8.972656 -10.039062 9.203125 -11 C 9.441406 -11.96875 9.679688 -12.929688 9.921875 -13.890625 C 10.335938 -14.117188 10.753906 -14.296875 11.171875 -14.421875 C 11.585938 -14.554688 12.101562 -14.625 12.71875 -14.625 C 13.457031 -14.625 14.085938 -14.503906 14.609375 -14.265625 C 15.140625 -14.035156 15.484375 -13.675781 15.640625 -13.1875 C 15.890625 -12.257812 16.128906 -11.351562 16.359375 -10.46875 C 16.597656 -9.59375 16.8125 -8.773438 17 -8.015625 C 17.1875 -7.265625 17.351562 -6.597656 17.5 -6.015625 C 17.65625 -5.441406 17.765625 -4.984375 17.828125 -4.640625 L 17.984375 -4.640625 C 18.222656 -6.273438 18.453125 -7.96875 18.671875 -9.71875 C 18.890625 -11.476562 19.097656 -13.269531 19.296875 -15.09375 C 19.671875 -15.332031 20.070312 -15.503906 20.5 -15.609375 C 20.925781 -15.710938 21.347656 -15.765625 21.765625 -15.765625 C 22.503906 -15.765625 23.117188 -15.601562 23.609375 -15.28125 C 24.097656 -14.96875 24.34375 -14.421875 24.34375 -13.640625 C 24.34375 -13.296875 24.289062 -12.785156 24.1875 -12.109375 C 24.082031 -11.429688 23.941406 -10.664062 23.765625 -9.8125 C 23.597656 -8.96875 23.398438 -8.078125 23.171875 -7.140625 C 22.953125 -6.210938 22.734375 -5.3125 22.515625 -4.4375 C 22.296875 -3.570312 22.082031 -2.789062 21.875 -2.09375 C 21.675781 -1.394531 21.503906 -0.859375 21.359375 -0.484375 C 21.054688 -0.222656 20.597656 -0.015625 19.984375 0.140625 C 19.367188 0.296875 18.710938 0.375 18.015625 0.375 C 16.234375 0.375 15.1875 -0.0664062 14.875 -0.953125 C 14.75 -1.335938 14.585938 -1.820312 14.390625 -2.40625 C 14.203125 -2.988281 14 -3.628906 13.78125 -4.328125 C 13.570312 -5.023438 13.375 -5.75 13.1875 -6.5 C 13 -7.25 12.84375 -7.972656 12.71875 -8.671875 C 12.5625 -7.929688 12.378906 -7.164062 12.171875 -6.375 C 11.960938 -5.582031 11.742188 -4.804688 11.515625 -4.046875 C 11.296875 -3.296875 11.085938 -2.609375 10.890625 -1.984375 C 10.703125 -1.359375 10.554688 -0.859375 10.453125 -0.484375 Z M 10.453125 -0.484375 "/></g></g></g><g fill="#12a701" fill-opacity="1"><g transform="translate(128.633844, 78.521714)"><g><path d="M 8.265625 -3.4375 C 8.617188 -3.4375 9.015625 -3.472656 9.453125 -3.546875 C 9.890625 -3.617188 10.210938 -3.71875 10.421875 -3.84375 L 10.421875 -6.390625 L 8.140625 -6.203125 C 7.546875 -6.160156 7.054688 -6.03125 6.671875 -5.8125 C 6.296875 -5.601562 6.109375 -5.285156 6.109375 -4.859375 C 6.109375 -4.441406 6.269531 -4.097656 6.59375 -3.828125 C 6.925781 -3.566406 7.484375 -3.4375 8.265625 -3.4375 Z M 8.015625 -15.921875 C 9.148438 -15.921875 10.1875 -15.800781 11.125 -15.5625 C 12.070312 -15.332031 12.878906 -14.976562 13.546875 -14.5 C 14.222656 -14.03125 14.738281 -13.425781 15.09375 -12.6875 C 15.457031 -11.957031 15.640625 -11.097656 15.640625 -10.109375 L 15.640625 -2.984375 C 15.640625 -2.429688 15.484375 -1.976562 15.171875 -1.625 C 14.867188 -1.28125 14.503906 -0.984375 14.078125 -0.734375 C 12.703125 0.0976562 10.765625 0.515625 8.265625 0.515625 C 7.140625 0.515625 6.125 0.40625 5.21875 0.1875 C 4.320312 -0.0195312 3.550781 -0.332031 2.90625 -0.75 C 2.257812 -1.175781 1.757812 -1.71875 1.40625 -2.375 C 1.0625 -3.039062 0.890625 -3.804688 0.890625 -4.671875 C 0.890625 -6.128906 1.320312 -7.25 2.1875 -8.03125 C 3.0625 -8.820312 4.410156 -9.3125 6.234375 -9.5 L 10.390625 -9.953125 L 10.390625 -10.171875 C 10.390625 -10.785156 10.117188 -11.222656 9.578125 -11.484375 C 9.035156 -11.753906 8.257812 -11.890625 7.25 -11.890625 C 6.4375 -11.890625 5.648438 -11.800781 4.890625 -11.625 C 4.128906 -11.457031 3.441406 -11.25 2.828125 -11 C 2.554688 -11.1875 2.320312 -11.472656 2.125 -11.859375 C 1.9375 -12.253906 1.84375 -12.664062 1.84375 -13.09375 C 1.84375 -13.644531 1.972656 -14.082031 2.234375 -14.40625 C 2.503906 -14.738281 2.914062 -15.019531 3.46875 -15.25 C 4.082031 -15.488281 4.804688 -15.660156 5.640625 -15.765625 C 6.472656 -15.867188 7.265625 -15.921875 8.015625 -15.921875 Z M 8.015625 -15.921875 "/></g></g></g><g fill="#12a701" fill-opacity="1"><g transform="translate(145.919988, 78.521714)"><g><path d="M 1.53125 -19.734375 C 1.53125 -20.535156 1.796875 -21.210938 2.328125 -21.765625 C 2.867188 -22.316406 3.585938 -22.59375 4.484375 -22.59375 C 5.367188 -22.59375 6.082031 -22.316406 6.625 -21.765625 C 7.164062 -21.210938 7.4375 -20.535156 7.4375 -19.734375 C 7.4375 -18.929688 7.164062 -18.253906 6.625 -17.703125 C 6.082031 -17.148438 5.367188 -16.875 4.484375 -16.875 C 3.585938 -16.875 2.867188 -17.148438 2.328125 -17.703125 C 1.796875 -18.253906 1.53125 -18.929688 1.53125 -19.734375 Z M 7.1875 -0.03125 C 6.945312 0.0078125 6.597656 0.0664062 6.140625 0.140625 C 5.691406 0.210938 5.234375 0.25 4.765625 0.25 C 4.296875 0.25 3.875 0.21875 3.5 0.15625 C 3.132812 0.09375 2.820312 -0.03125 2.5625 -0.21875 C 2.3125 -0.414062 2.117188 -0.675781 1.984375 -1 C 1.847656 -1.332031 1.78125 -1.757812 1.78125 -2.28125 L 1.78125 -15.21875 C 2.007812 -15.257812 2.351562 -15.316406 2.8125 -15.390625 C 3.269531 -15.472656 3.726562 -15.515625 4.1875 -15.515625 C 4.65625 -15.515625 5.070312 -15.476562 5.4375 -15.40625 C 5.8125 -15.34375 6.125 -15.21875 6.375 -15.03125 C 6.632812 -14.84375 6.832031 -14.582031 6.96875 -14.25 C 7.113281 -13.925781 7.1875 -13.5 7.1875 -12.96875 Z M 7.1875 -0.03125 "/></g></g></g></svg>