<?xml version="1.0" encoding="utf-8"?>
<!-- Generator: Adobe Illustrator 19.0.0, SVG Export Plug-In . SVG Version: 6.00 Build 0)  -->
<svg version="1.1" id="layer" xmlns="http://www.w3.org/2000/svg" xmlns:xlink="http://www.w3.org/1999/xlink" x="0px" y="0px"
	 viewBox="-153 -46 652 652" style="enable-background:new -153 -46 652 652;" xml:space="preserve">
<style type="text/css">
	.st0{fill:#0054A6;}
</style>
<path id="XMLID_1_" class="st0" d="M415.1,262.2c-1.2,2-16,30.4-23,39.7c-6.4,8.5-21.3,6.5-21.3-7.9c0-4.6,0-28,0-31.7
	c0-2.7-2.4-3.2-4.1,0.2c-2,3.9-11.3,23.3-16.2,35.3c-2.2,5.3-5.5,8.9-10.5,9.1c-3.3,0.1-8.9-2.8-8.9-9.9v-36.4
	c0-5.6-1.9-6.1-3.9-4.5c-2.1,1.7-7.3,4.8-12.9,6.2c-14,3.2-24.3-1-28.9-5c-5.4-4.8-9-12.7-4.3-18.8c7.9-10.2,29.6-0.8,31.9,24.9
	c2,21.9-9,43.9-29.9,44c-23.8,0-30.2-20.5-30.4-31c-0.1-5.3,0.8-11,2.4-16.1c1.1-3.5,0.3-4.4-3.2-2.8c-4.4,2.1-22.3,16.1-27.4,20.5
	c-7.7,6.6-11,12-9.5,16.9c1.3,4.2,6.9,3.6,8.6-0.9c1.9-5.1,1.6-11.2-1-17.5c-3.5-8.5-7.1-14.3-7.8-15.9c-1.8-4.7-3.7-3.1-5.6,0.3
	c-1.7,3.1-16.6,31.9-20.9,38.5c-7.3,11.1-23.7,10.5-23.7-5.8c0-9,0-29.4,0-33.6c0-4.6-2.9-4.6-4.6-1.4c-3.4,6.3-14.5,28.7-21,41.2
	c-5.7,10.9-18.9,9.3-18.9-3.6V260c0-3.6-2.3-4.6-4.4-1.5c-4.1,6-19.6,33.1-24.7,40.9c-8.4,12.8-26.1,7.7-26.2-7.5
	c0-9.2,0-30.4,0-34.5c0-4.2-2.9-5.6-5.3-0.8c-5.4,10.7-13.5,32.3-17.9,42.4c-5,11.7-19.6,9.4-19.6-1.6c0-0.3,0-60.2,0-60
	c0-12.2,1.1-26.8,4.2-37.6c3.4-12,10.7-22.2,22.5-22.4c10.6-0.2,16.6,8.9,14.1,27.4c-3.2,23.5-24.9,51.9-50.3,58
	c-17.8,4.3-28.6-1.5-33-5c-6.7-5.3-7.8-14.3-3.3-19.3c7.7-8.7,29.7-0.4,31,27.9c1,21-8.3,40.7-30.3,41.4
	c-20.2,0.7-29.4-15.7-29.9-28.9c-0.2-6.4,0.6-11.8,2-15.5c0.8-2.1-0.1-3.7-1.7-2.3c-10,6.8-37.1,32.2-49.6,70.2
	c-8,24.4-5.1,41.2,1.9,42.4c9.8,1.7,13.3-12.6,15-31.4c2.4-26.7-3.3-65.5-4.4-101.1c-0.7-20.3,3.9-40.2,7.8-48.1
	c2.7-5.3,0.8-6.3-2.9-4.3c-10.2,5.7-24.5,24.3-25.5,57.9c-0.7,23.9,4.4,42.2,14.7,49.9c3,2.2-1,5.1-1,5.1c-3.2-0.3-9.1-2.7-12.9-6.4
	c-11.4-11.1-19.6-28.3-16.6-55.6c4.1-36.6,34.2-60,54.9-63.4c7.7-1.3,6.6,4.3,4.8,10.3c-4.8,16.3-5,34.1-5.1,50.4
	c-0.2,29.2,5.1,62.9,4.5,93.5c-0.8,34.4-13.3,54.8-33,54.4c-13.7-0.3-20-11.7-18.7-29.7c0.9-12.6,4.2-28.8,19.1-52.7
	c29.1-46.7,56-58.9,66.2-64.4c5.4-2.9,7.6,2.3,4.5,5.6c-5,5.3-8.2,13.9-8.3,25.2c-0.2,16.3,6.6,22.7,17.2,22.7
	c10.4,0,16.8-9.6,17-22.7c0.2-13-2.3-20.7-8.5-24.5c-5.3-3.2-9,1-4.3,5.8c5.9,6,16.3,8.1,29.4,3.7c20.4-6.8,34.7-30.4,37.6-45.7
	c2-10.2,4.2-21-3.1-21.7c-6.3-0.6-9.1,11.5-9.2,26.8l0,57.8c0.1,5,2.7,4.5,3.9,1.8c3.1-6.6,9.2-22,13.4-28.4c3.3-5,8.5-8.3,14.7-8
	c8.8,0.6,10.4,8.4,10.4,13.8c0,3.2,0.1,29.3,0,37.8c-0.1,5.2,2.8,5.2,5.7,1.2c5.8-8,24.4-41,28.4-46.3c3.1-4,7.3-7,12.5-6.6
	c5.4,0.4,8.3,3.7,8.3,11.8c0,5.6,0,27.2,0,28.7c0.1,4.2,2,5.3,4.2,1.3c2.8-5,13.5-25.7,16.8-31.3c4.1-7.1,8.1-10.4,14.3-10.3
	c4.9,0.1,9.4,3.3,9.4,13.4c0,8.5,0,32.7,0,37.1c0,3.8,2.3,4.8,4.5,1.1c2.7-4.6,22.2-40.7,25.8-48.2c1.9-4,2.9-6.6,5.3-7.1
	c2.4-0.6,4.7,1.2,5.8,4c2,5.3,5,10.5,7.3,15.5c2.9,6.3,10.4,19.5,10.9,31.7c0.6,14.5-9.5,24-23.3,23c-7-0.5-12.2-6.2-11.9-14.1
	c0.5-13.1,19.2-25.1,26.5-30.6c8.5-6.4,30.7-21,41.5-25.4c4.2-1.7,5.8,3.1,3.2,5.9c-3.9,4.1-8.1,13.4-8.3,25.2
	c-0.2,14.6,5.7,23.6,16.9,23.6c10.8,0,17.6-10.2,18-23.3c0.4-10.9-3-20.8-9.8-24.9c-4.8-2.9-9.3,1.6-2.3,7.6
	c6.7,5.7,19.2,5.5,28.3,0.5c6.2-3.4,10.1-9.2,12.1-11.3c5.6-6,16-5.9,16,5.8l0,29.7c-0.1,3.1,2.3,4,3.8,1.1
	c1.1-2.2,11.9-25.9,16.7-34.2c5.7-10,19.3-7.7,19.3,4.2v39.8c0,3.6,3.2,3.1,4.8,1.2c4-4.6,20.8-39,25.2-47.6c2-3.9,3.3-6.5,5.8-6.9
	c3-0.5,4,1.6,4.8,4.3c1.3,4,3.7,10,6.1,15c2.5,4.9,11.5,20.5,12,31.4c0.6,14.4-8.6,21.5-17.7,22.7c-8.7,1.1-16.6-3.2-16.5-13.4
	c0.1-6.9,7.2-15.4,16.5-22.7c9.7-7.7,21.1-13.5,29.1-15.5c5.1-1.2,5.1,5.3,0.2,7c-8.8,3.1-21.2,11.3-26.6,16.1
	c-5.1,4.6-9.7,8.6-10.7,14.6c-0.9,5.9,6,7.3,8.3,3.8c4.8-7.2-0.9-18.2-3.6-24.9c-2.1-5.5-3.6-6.6-4.8-9
	C419,260.3,417,258.9,415.1,262.2 M398.5,200.8c-6.8,0-13.3,4.9-13.5,12.1c-0.3,8.7,6.6,12.3,9.5,12.7c1.9,0.2,3.6,2.1,2.7,4
	c-0.6,1.3-0.8,2.9-2.5,5.6c-3.2,5.2,1.8,7.8,4.8,4.5c2.8-2.9,10.9-13.7,11.5-24C411.6,205.7,405.2,200.8,398.5,200.8 M461.1,215
	c-2.9,0-5.3,1-7.4,3.1c-2,2-3,4.5-3,7.4c0,2.9,1,5.4,3,7.4c2,2.1,4.5,3.1,7.4,3.1c2.9,0,5.4-1,7.4-3.1c2.1-2.1,3.1-4.5,3.1-7.4
	c0-2.9-1-5.4-3.1-7.4C466.5,216,464,215,461.1,215 M473.3,225.4c0,3.4-1.2,6.2-3.6,8.6c-2.4,2.4-5.3,3.6-8.6,3.6
	c-3.4,0-6.2-1.2-8.6-3.6c-2.4-2.4-3.6-5.3-3.6-8.6c0-3.3,1.2-6.2,3.6-8.6c2.4-2.4,5.2-3.5,8.6-3.5c3.3,0,6.2,1.2,8.6,3.5
	C472.1,219.2,473.3,222.1,473.3,225.4 M464.3,222.8c0-0.9-0.3-1.6-0.9-1.9c-0.6-0.3-1.6-0.5-2.9-0.5h-2v4.7h2.1c1,0,1.8-0.1,2.3-0.3
	C463.9,224.5,464.3,223.8,464.3,222.8 M460.9,218.8c1.6,0,2.9,0.2,3.7,0.5c1.4,0.6,2.1,1.7,2.1,3.4c0,1.2-0.4,2.1-1.3,2.6
	c-0.5,0.3-1.1,0.5-1.9,0.6c1,0.2,1.8,0.6,2.3,1.3c0.5,0.7,0.7,1.4,0.7,2.1v1c0,0.3,0,0.6,0,1c0,0.4,0.1,0.6,0.1,0.7l0.1,0.2h-2.2
	c0,0,0-0.1,0-0.1c0,0,0-0.1-0.1-0.1l0-0.4v-1.1c0-1.5-0.4-2.5-1.2-3c-0.5-0.3-1.4-0.4-2.7-0.4h-1.9v5.2h-2.4v-13.3H460.9z"/>
</svg>
