<?xml version="1.0" encoding="utf-8"?>
<!-- Generator: Adobe Illustrator 26.5.0, SVG Export Plug-In . SVG Version: 6.00 Build 0)  -->
<svg version="1.0" id="katman_1" xmlns="http://www.w3.org/2000/svg" xmlns:xlink="http://www.w3.org/1999/xlink" x="0px" y="0px"
	 viewBox="0 0 1190.55 841.89" style="enable-background:new 0 0 1190.55 841.89;" xml:space="preserve">
<style type="text/css">
	.st0{fill-rule:evenodd;clip-rule:evenodd;fill:#00A3A3;}
	.st1{fill-rule:evenodd;clip-rule:evenodd;fill:#FFDD06;}
	.st2{filter:url(#Adobe_OpacityMaskFilter);}
	
		.st3{mask:url(#aum2og5bgb_00000012460072785204864920000006792841262701896886_);fill-rule:evenodd;clip-rule:evenodd;fill:#00A3A3;}
</style>
<g>
	<path class="st0" d="M759.86,467.58c-16.1,2.22-18.54,26.31-18.6,33.33l36.15-12.16C777.11,483.44,773.74,467.58,759.86,467.58
		 M704.13,524.35c0-81.57,46.36-88.18,57.21-88.18c34.8,0,50.4,33.42,50.4,56.48c0,9.71-2.55,14.37-17.84,20.52l-51.76,17.99
		c0,16.24,6.27,18.45,13.97,18.45c17.75,0,34.96-22.3,44.9-22.3c5.34,0,10.76,8.69,10.76,14.09c0,18.42-30.59,41.34-61.27,41.34
		C724.2,582.75,704.13,560.94,704.13,524.35 M1008.26,555.97c0-40.63-55.68-57.93-55.68-78.71c0-4.82,3.1-10.51,10.91-10.51
		c18.7,0,13.57,22.41,28,22.41c7.76,0,21.1-3.88,21.1-11.95c0-26.42-28.46-42.87-50.14-42.87c-18.36,0-44.8,8.65-45.93,39.98
		c-1.62,46.73,53.55,60.68,53.55,79.21c0,9.02-7.48,10.55-14.59,10.55c-22.02,0-32.12-24.16-42.38-24.16
		c-6.88,0-14.71,10.55-14.71,21.08c0,15.3,27.86,36.81,59.52,36.81c26.31,0,50.36-15.19,50.36-41.83 M418.11,583.19
		c0,5.64-2.65,8.21-10.55,8.04c-21.21-0.55-30.7-16.77-30.7-34.83v-97.21c0-15.23,15.74-22.48,25.31-22.63
		c8.47-0.01,10.98,5.58,10.98,16.39v7.79c10.13-12.97,25.54-17.24,35.03-17.24c21.63,0,34.07,11.83,37.34,19.32
		c12.36-15.84,24.6-19.32,36.8-19.32c44.01,0,45.15,40.22,45.15,50.9v83.68c0,6.73-3.93,7.95-13.64,7.95
		c-22.28,0-27.59-13.72-27.59-33.53l-0.04-53c0-9.48-2.83-18.33-13.57-18.33c-10.46,0-20.32,4.73-20.32,19.54v68.72
		c0,7.79-7.06,10.7-13.29,10.7c-23.49,0-26.73-17.86-26.73-29.14v-50.74c0-12.79-4.39-19.07-15.02-19.07
		c-11.45,0-19.32,8.56-19.32,20.92L418.11,583.19 M293.32,555.88c-8.54,0-11.29-7.06-11.29-14.48c0-23.02,30.23-28.25,43.05-28.25
		l0.97,0.02C326.05,547.26,304.37,555.88,293.32,555.88 M314.28,436.22c-22.33,0-24.83,11.18-25.18,16.79
		c-0.32,5.67,3.7,15.65,10.96,15.17c1-0.04,4-0.13,4.43-0.13c10.63-0.03,22.09,2.33,21.98,13.12c0,1.8-0.17,5.93-0.17,5.93
		s-84.42-1.78-84.42,54.91c0,21.45,16.04,44.63,42.22,44.63c17.54,0,34.77-12.14,41.63-28.53c-1.03,2.38-1.37,7.19-1.37,9.17
		c0,17.28,11.85,20.48,29.01,20.48c6.72,0,8.07-3.76,8.07-11.26V486.8C360.15,444.16,333.95,436.22,314.28,436.22 M616.39,498.34
		c0-18.02,3.84-28.27,19.39-29.54c12.51-0.97,24.02,7.78,24.02,22.42c0,32.01-14.28,52.52-43.41,54.43V498.34z M633.24,433.48
		c-31.09,0.15-51.52,15.51-51.52,65.42v115.3c0,13.94,3.51,22.46,20.83,22.46c9.69,0,13.68-1.11,13.68-7.13v-50.84
		c11.89-1.87,77.88-10.9,77.88-89.58c0-19.13-11.63-55.62-60.86-55.62H633.24z"/>
	<path class="st0" d="M216.83,368.6c13.88,0,30.18,9.11,30.18,37.6c0,32.15-20.32,54.9-62.14,63.51
		c-1.79-13.29-2.71-26.67-2.77-40.08C182.11,388.34,194.71,368.6,216.83,368.6 M140,426.24c0,53.49,9.26,127.41,12.95,148.74
		c3.35,19.26,7.02,29.79,29.04,29.79c12.32,0,17.48-1.38,17.48-9.03l-11.4-89.13c15.1-2.42,99.13-13.44,99.13-107.81
		c0-27.88-15.45-69.7-67.38-69.7C178.75,329.09,140,354.02,140,426.24 M862.77,458.96c0-7.18-0.11-11.62-0.11-11.62
		c0-6.46-4.32-9.73-11.7-9.66c-10.2,0.16-24.31,6.69-24.31,21.46v101.07c0,20.23,7.22,27.72,29.1,27.72c0,0,10.97-0.99,10.97-6.96
		c0-6-0.16-80.72-0.16-80.98c0-13.58,21.01-23.2,35.46-28.23c4.79-1.61,6.66-6.16,6.66-10.09c0-9.24-2.45-21.65-13.08-21.65
		C889.52,440.03,878.67,442.62,862.77,458.96"/>
	<path class="st1" d="M694.73,415.43c-25.83,0-99.68-64.43-99.68-100.92c0-17.4,12.1-22.38,22.15-22.38
		c11.47,0,38.47,15.37,38.47,15.37s4.04,69.01,31.38,69.01c9.7,0,27.92-15.67,27.92-28.25c0-20.74-16.44-37.07-35.36-52.79
		c0.9-7.95,6.25-22.16,15.02-33.06c7.95-9.86,19.04-17.69,32.85-17.88c13.61-0.23,22.65,14.05,22.97,36.87
		C751.29,336.3,718.14,415.09,694.73,415.43 M698.79,348.97c0,2.2-0.81,3.88-2.83,3.88c-16.58,0-18.34-32-18.34-32
		C690.66,327.92,698.79,337.76,698.79,348.97 M731.02,204.41c-22.21,0.3-44.51,19.34-58.44,42.77
		c-6.42,10.91-11.02,22.69-13.02,34.01c-21.17-12.95-44.05-20.92-59.03-20.92c-40.86,0-47.86,30.5-47.86,47.22
		c0,61.91,118.42,130.59,154.57,130.59c29.17-0.41,83.71-88,82.58-160.92C789.38,247.26,772.57,203.77,731.02,204.41"/>
	<path class="st1" d="M677.61,320.86c9.96,5.39,17.04,12.41,19.84,20.4c0.86,2.49,1.34,5.06,1.34,7.72c0,0.65-0.09,1.25-0.24,1.78
		c-0.36,1.26-1.17,2.1-2.59,2.1c-16.58,0-18.34-32-18.34-32 M694.73,415.43c-25.83,0-99.68-64.43-99.68-100.92
		c0-17.4,12.1-22.38,22.15-22.38c11.47,0,38.47,15.37,38.47,15.37s4.04,69.01,31.38,69.01c9.7,0,27.92-15.67,27.92-28.25
		c0-20.74-16.44-37.07-35.36-52.79c0.9-7.95,6.25-22.16,15.02-33.06c7.95-9.86,19.04-17.69,32.85-17.88
		c13.61-0.23,22.65,14.05,22.97,36.87C751.29,336.3,718.14,415.09,694.73,415.43 M789.82,277.18c-0.43-29.9-17.25-73.4-58.8-72.77
		c-22.21,0.3-44.51,19.34-58.44,42.77c-6.42,10.91-11.02,22.69-13.02,34.01c-21.17-12.95-44.05-20.92-59.03-20.92
		c-40.86,0-47.86,30.5-47.86,47.22c0,61.91,118.42,130.59,154.57,130.59c29.17-0.41,83.71-88,82.58-160.92"/>
	<g transform="translate(81.542 33.798)">
		<defs>
			<filter id="Adobe_OpacityMaskFilter" filterUnits="userSpaceOnUse" x="939.63" y="535.84" width="28.83" height="28.42">
				<feColorMatrix  type="matrix" values="1 0 0 0 0  0 1 0 0 0  0 0 1 0 0  0 0 0 1 0"/>
			</filter>
		</defs>
		
			<mask maskUnits="userSpaceOnUse" x="939.63" y="535.84" width="28.83" height="28.42" id="aum2og5bgb_00000012460072785204864920000006792841262701896886_">
			<g class="st2">
			</g>
		</mask>
		<path class="st3" d="M954.86,549.56c1.66,0,2.58-0.81,2.58-2.03c0-1.3-0.99-2.03-2.57-2.03h-3.16v4.06h3.16H954.86z
			 M948.09,544.28c-0.01-1.01,0.81-1.84,1.82-1.85h5.22c3.57,0,6.05,1.62,6.05,4.86c0.08,1.98-1.13,3.79-2.99,4.47l2.25,2.68
			c0.35,0.34,0.52,0.81,0.49,1.3c0,0.97-0.75,1.71-1.82,1.71c-0.66,0-1.08-0.32-1.49-0.73l-3.48-4.21h-2.41v3.17
			c-0.08,1.01-0.96,1.76-1.96,1.68c-0.9-0.07-1.61-0.78-1.68-1.68v-11.4L948.09,544.28z M965.63,550.05v-0.08
			c0-6.26-4.96-11.41-11.56-11.41c-6.57,0-11.6,5.23-11.6,11.49v0.08c0,6.27,4.95,11.41,11.56,11.41c6.54,0,11.56-5.23,11.56-11.49
			H965.63z M939.63,550.14v-0.09c0-7.72,6.38-14.21,14.42-14.21c8.13,0,14.42,6.42,14.42,14.13v0.08c0,7.72-6.38,14.21-14.42,14.21
			c-7.86,0.1-14.31-6.19-14.41-14.05C939.63,550.19,939.63,550.16,939.63,550.14z"/>
	</g>
</g>
</svg>
