<?xml version="1.0" encoding="utf-8"?>
<!-- Generator: Adobe Illustrator 27.1.1, SVG Export Plug-In . SVG Version: 6.00 Build 0)  -->
<svg version="1.1" id="Layer_1" xmlns="http://www.w3.org/2000/svg" xmlns:xlink="http://www.w3.org/1999/xlink" x="0px" y="0px"
	 viewBox="0 0 294.81 64.2" style="enable-background:new 0 0 294.81 64.2;" xml:space="preserve">
<style type="text/css">
	.st0{fill:#FFFFFF;}
	.st1{fill:#E01F2B;}
</style>
<g>
	<g>
		<g>
			<path class="st0" d="M0.9,60.25L1.2,8.35c0.02-4.04,3.01-7.32,6.67-7.32l14.99,0.15c13.39,0.13,21.67,7.83,21.61,20.1
				c-0.06,12.09-8.28,19.59-21.46,19.59c0,0-10.56-0.1-10.56-0.1c-0.08,0-0.16,0.03-0.22,0.09c-0.06,0.06-0.09,0.14-0.09,0.22
				l-0.11,11.89c-0.02,4.04-3.01,7.32-6.67,7.32L0.9,60.25z M15.8,10.98c-2.07,0-3.52,1.51-3.53,3.68L12.2,30.58
				c0,0.17,0.14,0.32,0.31,0.32l9.77,0.09c7.03,0,10.92-3.49,10.95-9.83c0.03-6.46-3.9-10.05-11.06-10.12
				C22.17,11.04,15.8,10.98,15.8,10.98z"/>
			<g>
				<path class="st1" d="M44.79,21.28C44.85,8.79,36.41,0.99,22.86,0.86L7.93,0.72C4.06,0.68,0.9,4.1,0.88,8.35l-0.3,52.21
					l4.72,0.05c3.87,0.04,7.03-3.38,7.05-7.63l0.11-11.89l10.21,0.1C36.22,41.31,44.73,33.68,44.79,21.28z M22.07,30.68l-9.56-0.09
					l0.07-15.93c0.01-2.02,1.33-3.38,3.25-3.37l6.33,0.06c7.17,0.07,10.78,3.68,10.75,9.81C32.88,27.2,29.24,30.75,22.07,30.68z"/>
			</g>
		</g>
		<g>
			<path class="st0" d="M47.01,60.82l0.16-34.77c0.02-4.03,3.01-7.32,6.67-7.32l3.53,0.03l-0.02,5.33c0,0.14,0.09,0.26,0.22,0.3
				c0.03,0.01,0.06,0.01,0.09,0.01c0.1,0,0.2-0.05,0.26-0.14c2.64-3.92,7.09-6,12.85-6.01l-0.05,10.79l-0.13-0.01
				c-0.73-0.07-1.35-0.13-2.08-0.14l-0.15,0c-6.79,0-10.54,4.31-10.58,12.14l-0.06,12.5c-0.02,4.04-3.01,7.32-6.67,7.32L47.01,60.82
				z"/>
			<path class="st1" d="M71.09,17.95L71.04,29.4c-0.94-0.09-1.66-0.17-2.53-0.18c-6.23-0.06-10.37,3.64-10.41,11.83l-0.06,12.5
				c-0.02,4.25-3.18,7.67-7.05,7.63l-4.29-0.04l0.16-35.08c0.02-4.25,3.18-7.67,7.05-7.63l3.78,0.04l-0.03,5.65
				C60.43,19.99,65.08,17.89,71.09,17.95z"/>
		</g>
		<g>
			<path class="st0" d="M91.46,61.89c-12.24-0.12-21.08-9.34-21.02-21.92c0.06-12.46,8.89-21.51,20.99-21.51l0.24,0
				c12.2,0.12,21.01,9.34,20.95,21.92c-0.06,12.46-8.85,21.51-20.91,21.51C91.7,61.89,91.46,61.89,91.46,61.89z M91.51,28.01
				c-6.1,0-10.23,4.85-10.26,12.07c-0.03,7.28,4.09,12.2,10.25,12.26l0.11,0c6.06,0,10.16-4.85,10.19-12.07
				c0.03-7.27-4.06-12.2-10.18-12.26L91.51,28.01z"/>
			<g>
				<path class="st1" d="M112.93,40.38c0.06-12.88-8.88-22.12-21.26-22.24c-12.39-0.12-21.48,8.94-21.54,21.82
					c-0.06,12.88,8.95,22.12,21.34,22.23C103.84,62.33,112.87,53.27,112.93,40.38z M91.5,52.03c-5.65-0.05-9.98-4.55-9.94-11.95
					c0.03-7.4,4.4-11.81,10.05-11.75c5.65,0.06,9.9,4.55,9.87,11.95C101.45,47.67,97.15,52.08,91.5,52.03z"/>
			</g>
		</g>
		<g>
			<path class="st0" d="M131.95,62.28c-9.32-0.09-14.22-5.34-14.17-15.17l0.08-17.58c0-0.17-0.14-0.32-0.31-0.32l-5.7-0.05
				l0.04-8.91c0,0,5.7,0.05,5.7,0.05c0.08,0,0.16-0.03,0.22-0.09c0.06-0.06,0.09-0.14,0.09-0.22l0.01-2.72
				c0.02-4.03,3.01-7.32,6.67-7.32l4.03,0.04l-0.05,10.1c0,0.17,0.14,0.32,0.31,0.32l9.39,0.09l-0.04,8.91c0,0-9.39-0.09-9.39-0.09
				c-0.08,0-0.16,0.03-0.22,0.09c-0.06,0.06-0.09,0.14-0.09,0.22l-0.08,17.41c-0.02,3.79,1.85,5.98,5.14,6.01
				c2.99,0.01,5.52,1.89,6.52,4.8l0.69,2c-2.11,1.56-5.17,2.41-8.64,2.41L131.95,62.28z"/>
			<path class="st1" d="M141.16,59.98c-2.33,1.81-5.74,2.65-9.21,2.61c-9.2-0.09-14.53-5.31-14.49-15.49l0.08-17.58l-6.01-0.06
				l0.05-9.54l6.01,0.06l0.01-2.72c0.02-4.25,3.18-7.67,7.05-7.63l4.29,0.04l-0.05,10.42l9.71,0.09l-0.04,9.54l-9.71-0.09
				l-0.08,17.41c-0.02,3.66,1.78,5.66,4.83,5.69c0.02,0,0.03,0,0.05,0c2.99,0.01,5.71,1.93,6.76,5.01L141.16,59.98z"/>
		</g>
		<g>
			<path class="st0" d="M143.49,61.76l0.16-34.77c0.02-4.03,3.01-7.32,6.67-7.32l4.03,0.04l-0.16,34.77
				c-0.02,4.04-3.01,7.32-6.67,7.32L143.49,61.76z"/>
			<path class="st1" d="M143.34,26.98l-0.16,35.08l4.29,0.04c3.87,0.04,7.03-3.38,7.05-7.63l0.16-35.08l-4.29-0.04
				C146.51,19.32,143.36,22.73,143.34,26.98z"/>
		</g>
		<g>
			<path class="st0" d="M189.49,62.2l0.1-22.27c0.04-8.61-4.42-10.46-8.16-10.49l-0.12,0c-6.07,0-9.56,4.28-9.6,11.75l-0.1,20.84
				l-10.67-0.1l0.16-34.77c0.02-4.03,3.01-7.32,6.67-7.32l3.53,0.03l-0.02,4.7c0,0.13,0.08,0.25,0.21,0.3
				c0.04,0.01,0.07,0.02,0.11,0.02c0.09,0,0.18-0.04,0.24-0.11c2.94-3.49,7.37-5.41,12.47-5.41l0.2,0
				c10.07,0.1,15.81,6.94,15.75,18.76l-0.08,16.79c-0.02,4.04-3.01,7.32-6.67,7.32L189.49,62.2z"/>
			<path class="st1" d="M200.58,38.13l-0.08,16.8c-0.02,4.25-3.18,7.67-7.05,7.63l-4.29-0.04l0.11-22.59
				c0.03-6.92-2.85-10.13-7.85-10.18c-5.43-0.05-9.36,3.57-9.4,11.44l-0.1,21.15l-11.3-0.11l0.16-35.08
				c0.02-4.25,3.18-7.67,7.05-7.63l3.78,0.04l-0.02,5.01c3.06-3.63,7.63-5.57,12.92-5.52C193.72,19.14,200.64,25.09,200.58,38.13z"
				/>
		</g>
		<g>
			<path class="st0" d="M271.85,63l-8.39-13.06c-0.06-0.09-0.16-0.14-0.26-0.14c0,0,0,0,0,0c-0.1,0-0.2,0.05-0.26,0.14l-5.74,8.41
				c-1.9,2.78-4.92,4.44-8.08,4.44l-6.52-0.06l14.75-20.91c0.08-0.11,0.08-0.25,0-0.36l-14.05-20.88l11.91,0.12l8.11,12.42
				c0.06,0.09,0.16,0.14,0.26,0.14c0,0,0,0,0,0c0.1,0,0.2-0.05,0.26-0.14l5.37-7.81c1.9-2.76,4.91-4.41,8.06-4.41l6.26,0.06
				l-14.24,20.28c-0.08,0.11-0.08,0.25,0,0.36l14.62,21.52L271.85,63z"/>
			<path class="st1" d="M271.68,63.31l-8.49-13.2l-5.74,8.41c-1.99,2.91-5.12,4.61-8.44,4.58l-7.04-0.07l15.09-21.41l-14.39-21.37
				l12.68,0.12l8.2,12.56l5.37-7.81c1.99-2.89,5.11-4.57,8.41-4.54l6.77,0.07l-14.58,20.77l14.96,22.01L271.68,63.31z"/>
		</g>
		<g>
			<path class="st0" d="M225.66,63.19c-12.91-0.12-21.88-9.14-21.82-21.92c0.06-12.47,8.62-21.52,20.36-21.52l0.22,0
				c11.76,0.11,19.93,9.19,19.87,22.07c0,0.73-0.09,1.75-0.16,2.65l-0.04,0.46c0,0-29.2-0.36-29.2-0.36c-0.09,0-0.18,0.04-0.24,0.11
				c-0.06,0.07-0.08,0.17-0.07,0.26c1.1,5.55,5.37,8.89,11.42,8.95l0.18,0c2.21,0,4.12-0.39,5.84-1.2c0.81-0.38,1.67-0.58,2.56-0.58
				c1.88,0,3.68,0.88,4.96,2.42l1.83,2.21c-3.57,4.28-8.75,6.45-15.4,6.45C225.96,63.19,225.66,63.19,225.66,63.19z M226.26,28.21
				c-5.3,0-9.99,2.76-12.56,7.39c-0.05,0.1-0.05,0.22,0,0.31c0.06,0.1,0.16,0.16,0.27,0.16c0,0,21.28,0.27,21.28,0.27
				c0.09,0,0.18-0.04,0.24-0.11s0.09-0.16,0.07-0.25c-0.35-2.31-1.11-4.15-2.2-5.31c-1.42-1.51-3.96-2.4-6.96-2.44L226.26,28.21z"/>
			<g>
				<path class="st1" d="M239.78,54.33c-2-2.41-5.17-3.21-7.9-1.93c-1.71,0.8-3.62,1.19-5.88,1.17c-5.94-0.06-10.05-3.36-11.11-8.7
					l29.49,0.37c0.08-1.03,0.21-2.47,0.22-3.42c0.06-13.76-8.73-22.27-20.18-22.38c-11.88-0.11-20.83,9.02-20.89,21.83
					c-0.06,12.72,8.66,22.11,22.13,22.24c7.03,0.07,12.47-2.27,16.11-6.76L239.78,54.33z M226.4,28.53
					c2.93,0.04,5.37,0.89,6.73,2.34c1.05,1.12,1.78,2.93,2.12,5.15l-21.28-0.27C216.44,31.3,220.99,28.47,226.4,28.53z"/>
			</g>
		</g>
		<g>
			<path class="st1" d="M291.48,21.72c0.65,0.36,1.17,0.85,1.54,1.48c0.38,0.63,0.57,1.32,0.58,2.09c0.01,0.77-0.17,1.47-0.54,2.1
				c-0.37,0.64-0.88,1.14-1.53,1.5c-0.65,0.37-1.36,0.55-2.15,0.55c-0.79,0-1.51-0.18-2.16-0.55c-0.65-0.37-1.17-0.87-1.55-1.5
				c-0.38-0.63-0.58-1.33-0.58-2.08s0.17-1.45,0.54-2.08c0.37-0.63,0.87-1.13,1.52-1.5c0.65-0.37,1.37-0.55,2.16-0.55
				C290.1,21.18,290.82,21.36,291.48,21.72z M291.17,28.33c0.54-0.31,0.96-0.74,1.27-1.27c0.31-0.53,0.46-1.13,0.45-1.77
				c-0.01-0.65-0.17-1.23-0.48-1.76c-0.31-0.53-0.74-0.94-1.28-1.25c-0.54-0.3-1.15-0.46-1.82-0.46c-0.67,0-1.28,0.15-1.83,0.46
				c-0.54,0.31-0.97,0.73-1.27,1.26c-0.3,0.53-0.45,1.12-0.44,1.77c0.01,0.65,0.17,1.24,0.48,1.77c0.32,0.53,0.75,0.95,1.29,1.26
				c0.55,0.31,1.15,0.46,1.82,0.46C290.03,28.8,290.63,28.64,291.17,28.33z M291.29,25.49c-0.16,0.24-0.39,0.43-0.7,0.55l1.08,1.58
				l-1.04,0l-0.96-1.4l-0.13,0l-0.94,0l0.01,1.4l-1.04,0l-0.05-4.61l1.98,0c0.62,0,1.11,0.14,1.47,0.43
				c0.36,0.29,0.54,0.68,0.55,1.17C291.53,24.95,291.45,25.25,291.29,25.49z M289.47,25.43c0.34,0,0.6-0.07,0.78-0.22
				c0.18-0.14,0.27-0.35,0.27-0.6c0-0.26-0.1-0.46-0.28-0.6c-0.19-0.14-0.45-0.21-0.79-0.21l-0.89,0l0.02,1.63L289.47,25.43z"/>
		</g>
	</g>
</g>
</svg>
